<svg width="184" height="54" viewBox="0 0 184 54" fill="none" xmlns="http://www.w3.org/2000/svg">
<path d="M65.6134 25.0579H66.5524C66.9299 25.0579 67.2429 25.0082 67.4913 24.9088C67.7397 24.7995 67.9533 24.6306 68.1322 24.4021L74.0788 16.8756C74.3272 16.5577 74.5856 16.3391 74.8538 16.2199C75.1321 16.0907 75.4798 16.0261 75.8971 16.0261H79.3548L72.0966 24.9834C71.6694 25.5298 71.2272 25.9173 70.7702 26.1459C71.0981 26.2651 71.3912 26.434 71.6495 26.6526C71.9178 26.8612 72.1711 27.1395 72.4096 27.4872L79.8914 37.5771H76.3591C75.8822 37.5771 75.5245 37.5126 75.2861 37.3834C75.0575 37.2443 74.8638 37.0456 74.7048 36.7872L68.6091 28.8286C68.4203 28.5603 68.2017 28.3715 67.9533 28.2622C67.7049 28.1529 67.3473 28.0983 66.8803 28.0983H65.6134V37.5771H61.6043V16.0261H65.6134V25.0579ZM84.5565 22.2857V37.5771H80.8604V22.2857H84.5565ZM85.0633 17.8295C85.0633 18.1474 84.9987 18.4455 84.8695 18.7237C84.7404 19.0019 84.5665 19.2454 84.3479 19.454C84.1392 19.6627 83.8908 19.8316 83.6027 19.9607C83.3145 20.08 83.0065 20.1396 82.6786 20.1396C82.3607 20.1396 82.0577 20.08 81.7695 19.9607C81.4913 19.8316 81.2479 19.6627 81.0392 19.454C80.8306 19.2454 80.6617 19.0019 80.5325 18.7237C80.4133 18.4455 80.3536 18.1474 80.3536 17.8295C80.3536 17.5016 80.4133 17.1936 80.5325 16.9054C80.6617 16.6173 80.8306 16.3689 81.0392 16.1602C81.2479 15.9516 81.4913 15.7876 81.7695 15.6684C82.0577 15.5392 82.3607 15.4747 82.6786 15.4747C83.0065 15.4747 83.3145 15.5392 83.6027 15.6684C83.8908 15.7876 84.1392 15.9516 84.3479 16.1602C84.5665 16.3689 84.7404 16.6173 84.8695 16.9054C84.9987 17.1936 85.0633 17.5016 85.0633 17.8295ZM97.1911 26.1906C96.7738 25.6838 96.3167 25.3261 95.8199 25.1175C95.3331 24.9088 94.8065 24.8045 94.2401 24.8045C93.6837 24.8045 93.182 24.9088 92.7348 25.1175C92.2877 25.3261 91.9052 25.6441 91.5872 26.0713C91.2693 26.4886 91.0259 27.0252 90.8569 27.681C90.688 28.3268 90.6036 29.0919 90.6036 29.9762C90.6036 30.8704 90.6731 31.6305 90.8122 32.2565C90.9613 32.8725 91.1699 33.3792 91.4382 33.7767C91.7065 34.1642 92.0344 34.4473 92.4219 34.6262C92.8094 34.7951 93.2416 34.8795 93.7185 34.8795C94.4836 34.8795 95.1344 34.7206 95.6709 34.4026C96.2074 34.0847 96.7142 33.6326 97.1911 33.0464V26.1906ZM100.872 15.43V37.5771H98.6219C98.135 37.5771 97.827 37.3536 97.6978 36.9065L97.3849 35.431C96.7688 36.1364 96.0584 36.7078 95.2536 37.1449C94.4587 37.5821 93.5297 37.8007 92.4666 37.8007C91.6319 37.8007 90.8669 37.6268 90.1714 37.2791C89.4759 36.9313 88.8747 36.4295 88.368 35.7738C87.8712 35.1081 87.4837 34.2884 87.2055 33.3146C86.9372 32.3409 86.8031 31.2281 86.8031 29.9762C86.8031 28.8435 86.9571 27.7903 87.2651 26.8165C87.5731 25.8428 88.0153 24.9983 88.5916 24.2829C89.1678 23.5675 89.8584 23.0111 90.6632 22.6136C91.468 22.2063 92.3722 22.0026 93.3757 22.0026C94.2302 22.0026 94.9605 22.1367 95.5666 22.405C96.1727 22.6732 96.7142 23.0359 97.1911 23.493V15.43H100.872ZM113.119 25.2665C113.019 25.4255 112.915 25.5398 112.806 25.6093C112.696 25.6689 112.557 25.6987 112.388 25.6987C112.21 25.6987 112.016 25.6491 111.807 25.5497C111.608 25.4503 111.375 25.341 111.107 25.2218C110.838 25.0926 110.53 24.9784 110.183 24.879C109.845 24.7797 109.442 24.73 108.975 24.73C108.25 24.73 107.679 24.884 107.261 25.192C106.854 25.5 106.65 25.9024 106.65 26.3992C106.65 26.7271 106.755 27.0053 106.963 27.2338C107.182 27.4524 107.465 27.6462 107.813 27.8151C108.171 27.984 108.573 28.138 109.02 28.2771C109.467 28.4063 109.919 28.5504 110.376 28.7093C110.843 28.8683 111.3 29.0521 111.748 29.2608C112.195 29.4595 112.592 29.7178 112.94 30.0358C113.298 30.3438 113.581 30.7164 113.789 31.1536C114.008 31.5907 114.117 32.1174 114.117 32.7334C114.117 33.4686 113.983 34.1493 113.715 34.7752C113.457 35.3912 113.069 35.9278 112.552 36.3848C112.036 36.832 111.395 37.1847 110.63 37.443C109.875 37.6914 109 37.8156 108.007 37.8156C107.48 37.8156 106.963 37.7659 106.457 37.6666C105.96 37.5771 105.478 37.448 105.011 37.2791C104.554 37.1102 104.127 36.9114 103.729 36.6829C103.342 36.4544 102.999 36.206 102.701 35.9377L103.55 34.5368C103.66 34.3678 103.789 34.2387 103.938 34.1493C104.087 34.0598 104.276 34.0151 104.504 34.0151C104.733 34.0151 104.946 34.0797 105.145 34.2089C105.354 34.338 105.592 34.4771 105.861 34.6262C106.129 34.7752 106.442 34.9143 106.799 35.0435C107.167 35.1727 107.629 35.2372 108.186 35.2372C108.623 35.2372 108.995 35.1876 109.303 35.0882C109.621 34.9789 109.88 34.8398 110.078 34.6709C110.287 34.502 110.436 34.3082 110.525 34.0896C110.625 33.8611 110.674 33.6276 110.674 33.3892C110.674 33.0315 110.565 32.7383 110.347 32.5098C110.138 32.2813 109.855 32.0826 109.497 31.9137C109.149 31.7448 108.747 31.5957 108.29 31.4665C107.843 31.3274 107.381 31.1784 106.904 31.0194C106.437 30.8605 105.975 30.6766 105.518 30.468C105.071 30.2494 104.668 29.9762 104.311 29.6483C103.963 29.3204 103.68 28.918 103.461 28.4411C103.252 27.9641 103.148 27.3878 103.148 26.7122C103.148 26.0862 103.272 25.4901 103.521 24.9237C103.769 24.3574 104.132 23.8656 104.609 23.4483C105.095 23.021 105.697 22.6832 106.412 22.4348C107.137 22.1765 107.972 22.0473 108.916 22.0473C109.969 22.0473 110.928 22.2212 111.792 22.5689C112.657 22.9167 113.377 23.3737 113.953 23.9401L113.119 25.2665ZM127.126 25.5199C127.017 25.659 126.907 25.7683 126.798 25.8478C126.699 25.9273 126.55 25.967 126.351 25.967C126.162 25.967 125.978 25.9124 125.799 25.8031C125.621 25.6838 125.407 25.5547 125.159 25.4156C124.91 25.2665 124.612 25.1374 124.264 25.0281C123.926 24.9088 123.504 24.8492 122.997 24.8492C122.352 24.8492 121.785 24.9684 121.298 25.2069C120.812 25.4354 120.404 25.7683 120.076 26.2055C119.758 26.6427 119.52 27.1742 119.361 27.8002C119.202 28.4162 119.122 29.1167 119.122 29.9016C119.122 30.7164 119.207 31.4417 119.376 32.0776C119.555 32.7135 119.808 33.25 120.136 33.6872C120.464 34.1145 120.861 34.4424 121.328 34.6709C121.795 34.8895 122.322 34.9988 122.908 34.9988C123.494 34.9988 123.966 34.9292 124.324 34.7901C124.692 34.6411 125 34.4821 125.248 34.3132C125.496 34.1343 125.71 33.9754 125.889 33.8363C126.078 33.6872 126.286 33.6127 126.515 33.6127C126.813 33.6127 127.036 33.727 127.185 33.9555L128.244 35.2969C127.836 35.7738 127.394 36.1762 126.917 36.5041C126.44 36.822 125.943 37.0804 125.427 37.2791C124.92 37.4679 124.393 37.602 123.847 37.6815C123.31 37.761 122.774 37.8007 122.237 37.8007C121.293 37.8007 120.404 37.6268 119.57 37.2791C118.735 36.9214 118.005 36.4047 117.379 35.7291C116.753 35.0534 116.256 34.2287 115.888 33.255C115.531 32.2714 115.352 31.1536 115.352 29.9016C115.352 28.7789 115.511 27.7406 115.829 26.7867C116.157 25.8229 116.634 24.9933 117.259 24.2978C117.885 23.5923 118.66 23.0409 119.584 22.6434C120.509 22.246 121.572 22.0473 122.774 22.0473C123.917 22.0473 124.915 22.2311 125.77 22.5987C126.634 22.9664 127.409 23.493 128.095 24.1785L127.126 25.5199ZM137.913 31.0492C136.85 31.0989 135.955 31.1933 135.23 31.3324C134.505 31.4616 133.924 31.6305 133.486 31.8391C133.049 32.0478 132.736 32.2912 132.547 32.5694C132.359 32.8476 132.264 33.1507 132.264 33.4786C132.264 34.1244 132.453 34.5864 132.831 34.8646C133.218 35.1428 133.72 35.2819 134.336 35.2819C135.091 35.2819 135.742 35.1478 136.288 34.8795C136.845 34.6013 137.386 34.184 137.913 33.6276V31.0492ZM129.477 24.417C131.236 22.8074 133.352 22.0026 135.826 22.0026C136.72 22.0026 137.52 22.1516 138.226 22.4497C138.931 22.7378 139.527 23.1452 140.014 23.6718C140.501 24.1885 140.869 24.8095 141.117 25.5348C141.375 26.2601 141.505 27.055 141.505 27.9194V37.5771H139.835C139.488 37.5771 139.219 37.5275 139.031 37.4281C138.842 37.3188 138.693 37.1052 138.583 36.7872L138.256 35.6844C137.868 36.0321 137.491 36.3401 137.123 36.6084C136.755 36.8667 136.373 37.0853 135.975 37.2642C135.578 37.443 135.151 37.5771 134.694 37.6666C134.246 37.7659 133.75 37.8156 133.203 37.8156C132.557 37.8156 131.961 37.7312 131.415 37.5622C130.868 37.3834 130.396 37.1201 129.999 36.7723C129.601 36.4246 129.293 35.9924 129.075 35.4757C128.856 34.959 128.747 34.3579 128.747 33.6723C128.747 33.2848 128.811 32.9023 128.941 32.5247C129.07 32.1372 129.278 31.7696 129.567 31.4218C129.865 31.0741 130.247 30.7462 130.714 30.4382C131.181 30.1302 131.753 29.8619 132.428 29.6334C133.114 29.4048 133.909 29.221 134.813 29.0819C135.717 28.9329 136.75 28.8435 137.913 28.8137V27.9194C137.913 26.896 137.694 26.1409 137.257 25.654C136.82 25.1572 136.189 24.9088 135.364 24.9088C134.768 24.9088 134.271 24.9784 133.874 25.1175C133.486 25.2566 133.144 25.4156 132.845 25.5944C132.547 25.7633 132.274 25.9173 132.026 26.0564C131.787 26.1955 131.519 26.2651 131.221 26.2651C130.963 26.2651 130.744 26.2005 130.565 26.0713C130.386 25.9322 130.242 25.7733 130.133 25.5944L129.477 24.417ZM144.255 37.5771V22.2857H146.506C146.983 22.2857 147.296 22.5093 147.445 22.9564L147.683 24.0891C147.951 23.791 148.229 23.5178 148.518 23.2694C148.816 23.021 149.129 22.8074 149.457 22.6285C149.794 22.4497 150.152 22.3106 150.53 22.2112C150.917 22.1019 151.339 22.0473 151.796 22.0473C152.76 22.0473 153.55 22.3106 154.166 22.8372C154.792 23.3539 155.259 24.0444 155.567 24.9088C155.806 24.4021 156.104 23.9699 156.461 23.6122C156.819 23.2446 157.212 22.9465 157.639 22.718C158.066 22.4894 158.518 22.3205 158.995 22.2112C159.482 22.1019 159.969 22.0473 160.456 22.0473C161.3 22.0473 162.05 22.1765 162.706 22.4348C163.362 22.6931 163.913 23.0707 164.36 23.5675C164.808 24.0643 165.145 24.6704 165.374 25.3858C165.612 26.1011 165.732 26.9209 165.732 27.8449V37.5771H162.05V27.8449C162.05 26.8712 161.837 26.1409 161.41 25.654C160.982 25.1572 160.356 24.9088 159.532 24.9088C159.154 24.9088 158.801 24.9734 158.473 25.1026C158.155 25.2318 157.872 25.4205 157.624 25.6689C157.385 25.9074 157.197 26.2104 157.058 26.5781C156.918 26.9457 156.849 27.368 156.849 27.8449V37.5771H153.153V27.8449C153.153 26.8215 152.944 26.0763 152.527 25.6093C152.119 25.1423 151.518 24.9088 150.723 24.9088C150.187 24.9088 149.685 25.043 149.218 25.3112C148.761 25.5696 148.334 25.9273 147.936 26.3843V37.5771H144.255ZM172.196 33.6127C172.613 34.1194 173.065 34.4771 173.552 34.6858C174.049 34.8944 174.585 34.9988 175.161 34.9988C175.718 34.9988 176.22 34.8944 176.667 34.6858C177.114 34.4771 177.491 34.1592 177.799 33.7319C178.117 33.3047 178.361 32.7682 178.53 32.1223C178.699 31.4665 178.783 30.6965 178.783 29.8122C178.783 28.918 178.709 28.1629 178.559 27.5468C178.42 26.9209 178.217 26.4141 177.948 26.0266C177.68 25.6391 177.352 25.356 176.965 25.1771C176.587 24.9983 176.155 24.9088 175.668 24.9088C174.903 24.9088 174.252 25.0728 173.716 25.4007C173.179 25.7186 172.672 26.1707 172.196 26.7569V33.6127ZM172.002 24.3723C172.628 23.6668 173.338 23.0955 174.133 22.6583C174.928 22.2212 175.862 22.0026 176.935 22.0026C177.77 22.0026 178.53 22.1765 179.215 22.5242C179.911 22.872 180.507 23.3787 181.004 24.0444C181.51 24.7002 181.898 25.5149 182.166 26.4886C182.444 27.4524 182.584 28.5603 182.584 29.8122C182.584 30.9548 182.43 32.013 182.122 32.9867C181.814 33.9605 181.371 34.805 180.795 35.5204C180.229 36.2358 179.538 36.7972 178.723 37.2046C177.919 37.602 177.014 37.8007 176.011 37.8007C175.156 37.8007 174.426 37.6715 173.82 37.4132C173.214 37.1449 172.672 36.7773 172.196 36.3103V42.57H168.514V22.2857H170.765C171.242 22.2857 171.555 22.5093 171.704 22.9564L172.002 24.3723Z" fill="#FDFAF8"/>
<path d="M47.7128 20.6357C35.8161 21.8403 23.9475 20.6357 17.6063 6.7698C16.7365 4.86499 16.3157 2.76409 15.5861 0.803245C15.4739 0.495113 15.3336 0.158969 15.025 0.0469211C14.6322 -0.121151 14.1552 0.186981 13.9868 0.579149C13.3695 2.03577 13.9307 4.36077 14.1832 5.84541C14.5199 7.75022 15.5581 13.6327 21.4784 20.2716C20.1035 23.9132 20.328 28.4231 20.805 32.2327C21.31 36.3225 22.4604 40.3562 24.2561 44.0818C26.0519 47.8354 28.5771 51.3929 32.1405 53.5219C32.5333 53.7459 33.2909 54.0261 33.7679 53.9981C34.2168 53.97 34.4413 53.2697 34.1607 52.9056C32.365 50.6646 31.5513 47.8354 30.7657 45.0622C30.2887 43.4095 29.8397 41.7288 29.5311 40.0481C28.7174 35.4821 29.1663 30.7201 30.5131 26.2662C30.5131 26.2662 30.5131 26.2662 30.5131 26.2382C36.0687 27.1065 42.4098 25.2857 47.2639 22.4005C47.6848 22.1484 48.1057 21.8683 48.274 21.4201C48.4424 20.9439 48.1898 20.5797 47.7128 20.6357Z" fill="#F4831F"/>
<path d="M47.7129 20.6356C35.8162 21.8401 23.9476 20.6356 17.6064 6.76962C17.0172 5.45306 16.6244 4.05246 16.2035 2.65186C16.5121 8.00215 18.9251 13.2404 22.8533 16.91C27.2865 21.0557 33.5996 23.1286 39.6321 22.4283C37.0788 24.7813 31.0463 24.7813 26.8376 23.1006C26.6131 23.0166 22.236 32.9048 31.1585 50.9446C31.8039 52.2611 31.3269 52.8214 30.7096 52.4292C31.0744 52.8494 31.6916 53.1855 32.1686 53.4656C32.5614 53.6897 33.319 53.9699 33.796 53.9418C34.2449 53.9138 34.4694 53.2135 34.1888 52.8494C32.3931 50.6084 31.5794 47.7792 30.7938 45.006C30.3168 43.3533 29.8679 41.6726 29.5592 39.9919C28.7455 35.4259 29.1945 30.6639 30.5413 26.21C30.5413 26.21 30.5413 26.21 30.5413 26.1819C36.0968 27.0503 42.438 25.2295 47.292 22.3443C47.7129 22.0922 48.1338 21.8121 48.3021 21.3639C48.4424 20.9437 48.1899 20.5795 47.7129 20.6356Z" fill="#F4831F"/>
<path d="M27.2303 13.1844C26.2202 11.8678 25.8555 10.0471 26.6411 8.28231C27.9318 5.39708 31.6635 3.49226 34.7219 4.61274C35.9284 5.06093 36.8263 6.01334 37.3313 7.16183C39.099 11.2516 35.1147 15.5094 30.9621 15.1453C29.4189 15.0332 28.1001 14.2769 27.2303 13.1844Z" fill="#FFE68D"/>
<path d="M36.3772 5.70557C36.5456 6.37785 36.5736 7.05014 36.4333 7.72243C35.9844 9.96339 34.0765 11.7282 31.8879 12.4004C30.2044 12.9047 28.2403 12.7926 26.8374 11.7281C26.641 11.5881 26.4727 11.42 26.3043 11.2239C26.4446 11.9522 26.7813 12.5965 27.2302 13.1848C28.072 14.2772 29.4188 15.0336 30.9339 15.1736C35.0866 15.5098 39.0708 11.28 37.3032 7.1902C37.0787 6.62996 36.77 6.12575 36.3772 5.70557Z" fill="#FFE68D"/>
<path d="M0.0137796 35.6501C-0.0423369 35.1179 0.0698961 34.5857 0.406595 34.0534C1.22028 32.8209 2.98795 32.5688 4.22252 33.2691C5.8499 34.1655 5.84989 36.5185 4.25057 37.4709C3.60524 37.8631 2.8196 37.9191 2.09009 37.807C0.939702 37.5829 0.126013 36.6866 0.0137796 35.6501Z" fill="#FFE68D"/>
<path d="M43.532 16.3777C43.2514 16.8539 42.7744 17.2181 42.1852 17.3861C41.3996 17.6102 40.4737 17.4982 39.8283 16.9379C39.0988 16.3217 38.9305 15.1172 39.2672 14.2488C39.688 13.1843 40.9507 12.456 42.073 12.8762C43.027 13.2403 43.7845 14.2208 43.8126 15.2572C43.8406 15.6774 43.7284 16.0415 43.532 16.3777Z" fill="#FFE68D"/>
<path d="M14.4637 36.2665C11.4615 34.6698 7.98225 31.7566 7.39302 31.1123C4.53108 27.9469 2.28642 24.0813 1.55691 19.8234C0.855451 15.9018 1.58497 9.54304 6.60739 8.92677C9.80603 8.5346 12.1629 11.5879 12.8363 14.3891C13.5378 17.3584 13.2572 20.4117 13.3975 23.409C13.5658 26.4063 14.4356 29.1514 15.9788 31.7285C16.7925 33.0731 18.3357 34.1376 18.953 35.5662C19.0372 35.7343 19.0933 35.9304 19.0372 36.1264C18.7286 37.9192 16.7084 37.471 14.4637 36.2665Z" fill="#F4831F"/>
<path d="M16.3716 37.1069C17.7745 37.527 18.8127 37.387 19.0372 36.1264C19.0652 35.9304 19.0091 35.7343 18.953 35.5662C18.3638 34.1376 16.7925 33.1011 15.9788 31.7286C14.4356 29.1514 13.5658 26.4063 13.3975 23.409C13.2291 20.4117 13.5377 17.3584 12.8363 14.3891C12.1629 11.5879 9.806 8.5346 6.60736 8.92677C5.45697 9.06683 4.5591 9.51502 3.82959 10.1313C5.03609 9.99123 6.29872 10.2433 7.28075 10.9436C8.76784 12.0081 9.4693 13.8569 9.806 15.6497C10.4233 18.787 10.1988 22.0364 10.6477 25.2298C11.0967 28.3951 12.3593 31.7286 15.0529 33.4373C15.8666 33.9415 16.8767 34.4177 17.1011 35.3421C17.2695 36.0424 16.9328 36.6587 16.3716 37.1069Z" fill="#F4831F"/>
<path d="M24.3122 48.3396C21.3661 44.1098 16.0069 40.9164 11.1248 40.2721C7.72976 39.8239 2.56704 42.1489 4.75558 46.3227C5.65345 48.0034 7.44917 48.4796 9.2449 48.4236C11.5176 48.3396 13.9587 48.2555 16.2875 48.6197C18.7566 49.0119 20.4963 50.1884 22.7129 51.1968C23.3021 51.4769 24.8733 52.2613 25.5467 51.8691C26.613 51.2528 24.7611 48.9838 24.3122 48.3396Z" fill="#F4831F"/>
<path d="M23.8071 49.376C23.0775 49.488 22.5444 48.7877 22.0674 48.2555C20.7206 46.7148 18.7005 45.9025 16.6803 45.7064C14.6601 45.4823 12.6118 45.8184 10.6197 46.2386C9.41318 46.4907 8.20667 46.7989 7.00017 46.7428C6.15842 46.7148 5.28861 46.4627 4.58716 45.9865C4.64327 46.1266 4.69939 46.2666 4.78357 46.4067C5.68143 48.0874 7.47716 48.5636 9.27288 48.5076C11.5456 48.4236 13.9867 48.3395 16.3155 48.7037C18.7846 49.0958 20.5242 50.2724 22.7408 51.2808C23.3301 51.5609 24.9013 52.3452 25.5747 51.9531C26.5006 51.3928 25.2661 49.6561 24.6207 48.7597C24.4243 49.0398 24.1718 49.3199 23.8071 49.376Z" fill="#F4831F"/>
<path d="M36.265 52.0093C36.0125 51.8132 35.788 51.5611 35.6197 51.253C34.5535 49.4042 34.5535 46.7991 34.5535 44.7262C34.5535 42.5973 34.7779 40.4403 35.283 38.3675C36.237 34.3897 38.2291 30.412 41.7925 28.1711C44.2055 26.6304 47.4603 25.9581 50.1539 27.2187C52.5669 28.3391 54.3065 31.5045 52.7913 33.9696C51.3323 36.3226 48.1898 36.9388 46.0293 38.4235C44.2055 39.656 42.6904 41.5328 41.6803 43.4936C40.7543 45.2864 40.5579 47.2473 40.1371 49.1801C39.8565 50.3846 39.2392 52.0373 37.8643 52.3735C37.219 52.4855 36.6859 52.3174 36.265 52.0093Z" fill="#F4831F"/>
<path fill-rule="evenodd" clip-rule="evenodd" d="M3.94727 13.6541C3.80122 13.5745 3.58741 13.6135 3.52099 13.829C2.59507 17.5826 3.18429 21.6163 5.12031 24.9777C5.65342 25.9302 6.32681 26.8265 7.05633 27.6109C7.07342 27.6301 7.09166 27.6454 7.11065 27.6572C7.09165 27.6454 7.07341 27.6301 7.0563 27.6109C6.32679 26.8265 5.65339 25.9301 5.12029 24.9777C3.18427 21.6163 2.59504 17.5826 3.52096 13.829C3.58739 13.6134 3.80122 13.5745 3.94727 13.6541ZM6.77158 27.8711C6.02502 27.0681 5.33394 26.1487 4.78487 25.1682C2.80091 21.7223 2.19654 17.5875 3.14648 13.7366L3.14911 13.7259L3.15236 13.7154C3.27825 13.3069 3.66635 13.1743 3.97085 13.2522C4.11957 13.2903 4.26602 13.3803 4.36467 13.5254C4.46797 13.6772 4.502 13.8653 4.45794 14.0559L4.45648 14.0622L4.45643 14.0622C3.3377 18.5569 4.59336 23.5192 7.72842 26.9246C7.87138 27.0713 7.92842 27.2579 7.90944 27.4385C7.89148 27.6093 7.80879 27.7548 7.70869 27.8582C7.60932 27.9608 7.46556 28.0498 7.29288 28.0701C7.10547 28.0921 6.91322 28.0278 6.77158 27.8711ZM23.3889 37.1365C23.3773 37.1191 23.367 37.1 23.3583 37.079C22.1237 32.9052 21.8431 28.4793 22.5446 24.1655C22.5487 24.1387 22.5556 24.1146 22.5647 24.0932C22.5556 24.1146 22.5487 24.1387 22.5446 24.1654C21.8431 28.4793 22.1237 32.9052 23.3582 37.079C23.367 37.1 23.3773 37.1191 23.3889 37.1365ZM22.4797 23.6436C22.3068 23.7375 22.195 23.9048 22.1636 24.1048C21.4532 28.4754 21.7375 32.9594 22.9884 37.1884L22.9943 37.2083L23.0023 37.2275C23.1614 37.6088 23.5503 37.7099 23.8381 37.6288C23.9841 37.5877 24.1322 37.4947 24.2272 37.3403C24.3269 37.1785 24.3454 36.9859 24.2888 36.7999C23.099 32.7656 22.8224 28.5106 23.4866 24.3665L23.4869 24.3643C23.5529 23.9363 23.2423 23.6584 22.9606 23.5881C22.8165 23.5522 22.6404 23.5563 22.4797 23.6436ZM26.7184 43.77C26.1575 42.3702 25.5961 40.9688 25.0345 39.5952C24.9806 39.4614 24.8842 39.3315 24.7496 39.2446C24.6152 39.1578 24.4276 39.1077 24.2303 39.1738C24.055 39.2194 23.9196 39.3379 23.8395 39.4687C23.7529 39.6102 23.7025 39.8154 23.7859 40.0237L23.7861 40.0241C24.347 41.424 24.9084 42.8253 25.47 44.1989C25.5239 44.3327 25.6203 44.4626 25.7549 44.5496C25.8893 44.6364 26.0769 44.6864 26.2742 44.6204C26.4495 44.5747 26.5849 44.4563 26.665 44.3254C26.7516 44.1839 26.802 43.9787 26.7186 43.7705L26.7184 43.77ZM26.3606 43.9139C25.7994 42.5133 25.2382 41.1127 24.6771 39.7401C24.6676 39.7165 24.6557 39.6937 24.6419 39.6723C24.6557 39.6937 24.6676 39.7165 24.677 39.7401C25.2382 41.1127 25.7994 42.5133 26.3605 43.9139C26.4166 44.054 26.3044 44.2221 26.1641 44.2501C26.1601 44.2517 26.156 44.2532 26.152 44.2545C26.156 44.2532 26.1601 44.2517 26.1641 44.2501C26.3044 44.2221 26.4167 44.054 26.3606 43.9139ZM15.7824 43.6058C15.8422 43.6535 15.8701 43.7101 15.8744 43.7675C15.8701 43.7101 15.8422 43.6535 15.7825 43.6058L15.7824 43.6058ZM6.57936 43.3537C6.60448 43.3378 6.62966 43.3221 6.65491 43.3066C6.62965 43.3221 6.60446 43.3378 6.57934 43.3537C6.55397 43.3698 6.52878 43.3812 6.5041 43.3884C6.52879 43.3812 6.55398 43.3698 6.57936 43.3537ZM6.09294 42.5233C9.21189 40.5551 13.2673 40.9077 16.0307 43.3105C16.1893 43.4408 16.2722 43.6259 16.2594 43.8225C16.2476 44.0043 16.1575 44.1546 16.055 44.2569C15.8603 44.4513 15.4635 44.601 15.1209 44.3274L15.1134 44.3214L15.1062 44.315C12.7963 42.274 9.39316 42.0327 6.78534 43.6798C6.6138 43.7884 6.41597 43.8129 6.23424 43.7492C6.06474 43.6897 5.94276 43.566 5.87055 43.4362C5.72937 43.1825 5.71998 42.7602 6.09194 42.5239L6.09294 42.5233ZM37.4692 36.9795C37.509 36.9449 37.5402 36.8946 37.5558 36.8269C38.0609 34.698 39.1551 32.8492 40.7545 31.3646C40.8556 31.2737 40.8692 31.1647 40.8322 31.0741C40.8692 31.1647 40.8555 31.2737 40.7544 31.3645C39.1551 32.8492 38.0608 34.698 37.5557 36.8269C37.5401 36.8946 37.509 36.9448 37.4692 36.9795ZM40.1038 30.6855L40.1037 30.6854L40.0963 30.6924C38.3893 32.31 37.1991 34.3077 36.6477 36.5965L36.6469 36.6C36.6028 36.7906 36.637 36.9778 36.7386 37.1289C36.8356 37.2731 36.9802 37.3642 37.1281 37.4031C37.2758 37.4418 37.4496 37.4343 37.6072 37.3499C37.7729 37.2612 37.887 37.1053 37.9313 36.9151C38.4182 34.8633 39.4716 33.0824 41.015 31.649C41.1594 31.518 41.2414 31.3419 41.2365 31.1516C41.2318 30.9701 41.1494 30.8146 41.041 30.7064C40.8217 30.4875 40.4205 30.401 40.1038 30.6855ZM45.5499 27.3697L45.5422 27.3709L45.5346 27.3724C44.1679 27.6394 42.9527 28.2918 41.9493 29.2346L41.9492 29.2345L41.9409 29.2428C41.8002 29.3833 41.7341 29.5648 41.7482 29.7484C41.7615 29.9214 41.8433 30.0694 41.9479 30.1739C42.0526 30.2783 42.2006 30.3598 42.3733 30.373C42.5543 30.3869 42.7335 30.323 42.8735 30.1861C43.7193 29.3956 44.717 28.8731 45.8154 28.6632C46.0054 28.6318 46.171 28.5282 46.2671 28.3596C46.3586 28.1992 46.3635 28.0219 46.3252 27.8768C46.2489 27.5875 45.9608 27.3066 45.5499 27.3697Z" fill="#F4831F"/>
<path d="M50.0978 27.1906C49.6208 26.9665 49.1438 26.8264 48.6387 26.7144C48.9754 26.9104 49.3121 27.1345 49.6208 27.3866C50.8553 28.5351 51.3043 30.58 50.3503 31.9526C49.7049 32.905 48.5826 33.3812 47.4603 33.6333C46.3379 33.9134 45.1876 33.9975 44.1213 34.3896C41.7925 35.23 40.109 37.3869 39.2112 39.6839C38.3133 42.0089 38.0888 44.502 37.8082 46.967C37.7521 47.5553 37.6679 48.1716 37.3593 48.6758C37.0507 49.18 36.4334 49.5441 35.8442 49.3481C35.4233 49.208 35.1427 48.8158 34.8902 48.4237C34.778 48.2556 34.6938 48.0595 34.5815 47.8914C34.7218 49.096 34.9744 50.2725 35.5355 51.2249C35.7039 51.533 35.9283 51.7851 36.1809 51.9812C36.6017 52.3173 37.1629 52.4574 37.7521 52.3173C39.127 51.9812 39.7443 50.3285 40.0248 49.124C40.4457 47.1911 40.6421 45.2023 41.568 43.4375C42.5781 41.4767 44.0933 39.5999 45.9171 38.3674C48.0776 36.9107 51.2201 36.2665 52.6791 33.9134C54.2504 31.4764 52.5108 28.311 50.0978 27.1906Z" fill="#F4831F"/>
</svg>
