<svg width="184" height="54" viewBox="0 0 184 54" fill="none" xmlns="http://www.w3.org/2000/svg">
<path d="M65.6134 25.0577H66.5524C66.9299 25.0577 67.2429 25.008 67.4913 24.9086C67.7397 24.7993 67.9533 24.6304 68.1322 24.4019L74.0788 16.8754C74.3272 16.5575 74.5856 16.3389 74.8538 16.2196C75.1321 16.0905 75.4798 16.0259 75.8971 16.0259H79.3548L72.0966 24.9831C71.6694 25.5296 71.2272 25.9171 70.7702 26.1456C71.0981 26.2649 71.3912 26.4338 71.6495 26.6524C71.9178 26.861 72.1711 27.1392 72.4096 27.487L79.8914 37.5769H76.3591C75.8822 37.5769 75.5245 37.5124 75.2861 37.3832C75.0575 37.2441 74.8638 37.0454 74.7048 36.787L68.6091 28.8283C68.4203 28.5601 68.2017 28.3713 67.9533 28.262C67.7049 28.1527 67.3473 28.0981 66.8803 28.0981H65.6134V37.5769H61.6043V16.0259H65.6134V25.0577ZM84.5565 22.2855V37.5769H80.8604V22.2855H84.5565ZM85.0633 17.8293C85.0633 18.1472 84.9987 18.4453 84.8695 18.7235C84.7404 19.0017 84.5665 19.2451 84.3479 19.4538C84.1392 19.6624 83.8908 19.8314 83.6027 19.9605C83.3145 20.0798 83.0065 20.1394 82.6786 20.1394C82.3607 20.1394 82.0577 20.0798 81.7695 19.9605C81.4913 19.8314 81.2479 19.6624 81.0392 19.4538C80.8306 19.2451 80.6617 19.0017 80.5325 18.7235C80.4133 18.4453 80.3536 18.1472 80.3536 17.8293C80.3536 17.5014 80.4133 17.1934 80.5325 16.9052C80.6617 16.6171 80.8306 16.3687 81.0392 16.16C81.2479 15.9514 81.4913 15.7874 81.7695 15.6682C82.0577 15.539 82.3607 15.4745 82.6786 15.4745C83.0065 15.4745 83.3145 15.539 83.6027 15.6682C83.8908 15.7874 84.1392 15.9514 84.3479 16.16C84.5665 16.3687 84.7404 16.6171 84.8695 16.9052C84.9987 17.1934 85.0633 17.5014 85.0633 17.8293ZM97.1911 26.1904C96.7738 25.6836 96.3167 25.3259 95.8199 25.1173C95.3331 24.9086 94.8065 24.8043 94.2401 24.8043C93.6837 24.8043 93.182 24.9086 92.7348 25.1173C92.2877 25.3259 91.9052 25.6439 91.5872 26.0711C91.2693 26.4884 91.0259 27.025 90.8569 27.6807C90.688 28.3266 90.6036 29.0916 90.6036 29.9759C90.6036 30.8702 90.6731 31.6303 90.8122 32.2562C90.9613 32.8723 91.1699 33.379 91.4382 33.7764C91.7065 34.1639 92.0344 34.4471 92.4219 34.626C92.8094 34.7949 93.2416 34.8793 93.7185 34.8793C94.4836 34.8793 95.1344 34.7204 95.6709 34.4024C96.2074 34.0845 96.7142 33.6324 97.1911 33.0461V26.1904ZM100.872 15.4297V37.5769H98.6219C98.135 37.5769 97.827 37.3534 97.6978 36.9063L97.3849 35.4308C96.7688 36.1362 96.0584 36.7075 95.2536 37.1447C94.4587 37.5819 93.5297 37.8005 92.4666 37.8005C91.6319 37.8005 90.8669 37.6266 90.1714 37.2789C89.4759 36.9311 88.8747 36.4293 88.368 35.7736C87.8712 35.1079 87.4837 34.2881 87.2055 33.3144C86.9372 32.3407 86.8031 31.2279 86.8031 29.9759C86.8031 28.8432 86.9571 27.79 87.2651 26.8163C87.5731 25.8426 88.0153 24.998 88.5916 24.2827C89.1678 23.5673 89.8584 23.0109 90.6632 22.6134C91.468 22.206 92.3722 22.0024 93.3757 22.0024C94.2302 22.0024 94.9605 22.1365 95.5666 22.4048C96.1727 22.673 96.7142 23.0357 97.1911 23.4927V15.4297H100.872ZM113.119 25.2663C113.019 25.4253 112.915 25.5396 112.806 25.6091C112.696 25.6687 112.557 25.6985 112.388 25.6985C112.21 25.6985 112.016 25.6488 111.807 25.5495C111.608 25.4501 111.375 25.3408 111.107 25.2216C110.838 25.0924 110.53 24.9782 110.183 24.8788C109.845 24.7795 109.442 24.7298 108.975 24.7298C108.25 24.7298 107.679 24.8838 107.261 25.1918C106.854 25.4998 106.65 25.9022 106.65 26.399C106.65 26.7269 106.755 27.0051 106.963 27.2336C107.182 27.4522 107.465 27.646 107.813 27.8149C108.171 27.9838 108.573 28.1378 109.02 28.2769C109.467 28.4061 109.919 28.5501 110.376 28.7091C110.843 28.8681 111.3 29.0519 111.748 29.2606C112.195 29.4593 112.592 29.7176 112.94 30.0356C113.298 30.3436 113.581 30.7162 113.789 31.1534C114.008 31.5905 114.117 32.1171 114.117 32.7332C114.117 33.4684 113.983 34.149 113.715 34.775C113.457 35.391 113.069 35.9276 112.552 36.3846C112.036 36.8317 111.395 37.1845 110.63 37.4428C109.875 37.6912 109 37.8154 108.007 37.8154C107.48 37.8154 106.963 37.7657 106.457 37.6664C105.96 37.5769 105.478 37.4478 105.011 37.2789C104.554 37.1099 104.127 36.9112 103.729 36.6827C103.342 36.4542 102.999 36.2058 102.701 35.9375L103.55 34.5365C103.66 34.3676 103.789 34.2385 103.938 34.149C104.087 34.0596 104.276 34.0149 104.504 34.0149C104.733 34.0149 104.946 34.0795 105.145 34.2087C105.354 34.3378 105.592 34.4769 105.861 34.626C106.129 34.775 106.442 34.9141 106.799 35.0433C107.167 35.1724 107.629 35.237 108.186 35.237C108.623 35.237 108.995 35.1873 109.303 35.088C109.621 34.9787 109.88 34.8396 110.078 34.6707C110.287 34.5018 110.436 34.308 110.525 34.0894C110.625 33.8609 110.674 33.6274 110.674 33.3889C110.674 33.0312 110.565 32.7381 110.347 32.5096C110.138 32.2811 109.855 32.0824 109.497 31.9135C109.149 31.7445 108.747 31.5955 108.29 31.4663C107.843 31.3272 107.381 31.1782 106.904 31.0192C106.437 30.8602 105.975 30.6764 105.518 30.4678C105.071 30.2492 104.668 29.9759 104.311 29.6481C103.963 29.3202 103.68 28.9178 103.461 28.4408C103.252 27.9639 103.148 27.3876 103.148 26.712C103.148 26.086 103.272 25.4899 103.521 24.9235C103.769 24.3572 104.132 23.8653 104.609 23.448C105.095 23.0208 105.697 22.683 106.412 22.4346C107.137 22.1762 107.972 22.0471 108.916 22.0471C109.969 22.0471 110.928 22.2209 111.792 22.5687C112.657 22.9165 113.377 23.3735 113.953 23.9399L113.119 25.2663ZM127.126 25.5197C127.017 25.6588 126.907 25.7681 126.798 25.8476C126.699 25.9271 126.55 25.9668 126.351 25.9668C126.162 25.9668 125.978 25.9121 125.799 25.8029C125.621 25.6836 125.407 25.5545 125.159 25.4154C124.91 25.2663 124.612 25.1371 124.264 25.0279C123.926 24.9086 123.504 24.849 122.997 24.849C122.352 24.849 121.785 24.9682 121.298 25.2067C120.812 25.4352 120.404 25.7681 120.076 26.2053C119.758 26.6424 119.52 27.174 119.361 27.8C119.202 28.416 119.122 29.1165 119.122 29.9014C119.122 30.7162 119.207 31.4415 119.376 32.0774C119.555 32.7133 119.808 33.2498 120.136 33.687C120.464 34.1143 120.861 34.4421 121.328 34.6707C121.795 34.8893 122.322 34.9986 122.908 34.9986C123.494 34.9986 123.966 34.929 124.324 34.7899C124.692 34.6409 125 34.4819 125.248 34.313C125.496 34.1341 125.71 33.9752 125.889 33.8361C126.078 33.687 126.286 33.6125 126.515 33.6125C126.813 33.6125 127.036 33.7268 127.185 33.9553L128.244 35.2966C127.836 35.7736 127.394 36.176 126.917 36.5039C126.44 36.8218 125.943 37.0801 125.427 37.2789C124.92 37.4676 124.393 37.6018 123.847 37.6813C123.31 37.7607 122.774 37.8005 122.237 37.8005C121.293 37.8005 120.404 37.6266 119.57 37.2789C118.735 36.9212 118.005 36.4045 117.379 35.7289C116.753 35.0532 116.256 34.2285 115.888 33.2548C115.531 32.2711 115.352 31.1534 115.352 29.9014C115.352 28.7787 115.511 27.7404 115.829 26.7865C116.157 25.8227 116.634 24.9931 117.259 24.2976C117.885 23.5921 118.66 23.0407 119.584 22.6432C120.509 22.2458 121.572 22.0471 122.774 22.0471C123.917 22.0471 124.915 22.2309 125.77 22.5985C126.634 22.9661 127.409 23.4927 128.095 24.1783L127.126 25.5197ZM137.913 31.049C136.85 31.0987 135.955 31.1931 135.23 31.3322C134.505 31.4614 133.924 31.6303 133.486 31.8389C133.049 32.0476 132.736 32.291 132.547 32.5692C132.359 32.8474 132.264 33.1505 132.264 33.4784C132.264 34.1242 132.453 34.5862 132.831 34.8644C133.218 35.1426 133.72 35.2817 134.336 35.2817C135.091 35.2817 135.742 35.1476 136.288 34.8793C136.845 34.6011 137.386 34.1838 137.913 33.6274V31.049ZM129.477 24.4168C131.236 22.8072 133.352 22.0024 135.826 22.0024C136.72 22.0024 137.52 22.1514 138.226 22.4495C138.931 22.7376 139.527 23.145 140.014 23.6716C140.501 24.1883 140.869 24.8093 141.117 25.5346C141.375 26.2599 141.505 27.0548 141.505 27.9192V37.5769H139.835C139.488 37.5769 139.219 37.5273 139.031 37.4279C138.842 37.3186 138.693 37.105 138.583 36.787L138.256 35.6841C137.868 36.0319 137.491 36.3399 137.123 36.6082C136.755 36.8665 136.373 37.0851 135.975 37.264C135.578 37.4428 135.151 37.5769 134.694 37.6664C134.246 37.7657 133.75 37.8154 133.203 37.8154C132.557 37.8154 131.961 37.7309 131.415 37.562C130.868 37.3832 130.396 37.1199 129.999 36.7721C129.601 36.4244 129.293 35.9922 129.075 35.4755C128.856 34.9588 128.747 34.3577 128.747 33.6721C128.747 33.2846 128.811 32.9021 128.941 32.5245C129.07 32.137 129.278 31.7694 129.567 31.4216C129.865 31.0739 130.247 30.746 130.714 30.438C131.181 30.13 131.753 29.8617 132.428 29.6332C133.114 29.4046 133.909 29.2208 134.813 29.0817C135.717 28.9327 136.75 28.8432 137.913 28.8134V27.9192C137.913 26.8958 137.694 26.1407 137.257 25.6538C136.82 25.157 136.189 24.9086 135.364 24.9086C134.768 24.9086 134.271 24.9782 133.874 25.1173C133.486 25.2564 133.144 25.4154 132.845 25.5942C132.547 25.7631 132.274 25.9171 132.026 26.0562C131.787 26.1953 131.519 26.2649 131.221 26.2649C130.963 26.2649 130.744 26.2003 130.565 26.0711C130.386 25.932 130.242 25.773 130.133 25.5942L129.477 24.4168ZM144.255 37.5769V22.2855H146.506C146.983 22.2855 147.296 22.5091 147.445 22.9562L147.683 24.0889C147.951 23.7908 148.229 23.5176 148.518 23.2692C148.816 23.0208 149.129 22.8072 149.457 22.6283C149.794 22.4495 150.152 22.3104 150.53 22.211C150.917 22.1017 151.339 22.0471 151.796 22.0471C152.76 22.0471 153.55 22.3104 154.166 22.837C154.792 23.3536 155.259 24.0442 155.567 24.9086C155.806 24.4019 156.104 23.9697 156.461 23.612C156.819 23.2444 157.212 22.9463 157.639 22.7177C158.066 22.4892 158.518 22.3203 158.995 22.211C159.482 22.1017 159.969 22.0471 160.456 22.0471C161.3 22.0471 162.05 22.1762 162.706 22.4346C163.362 22.6929 163.913 23.0705 164.36 23.5673C164.808 24.0641 165.145 24.6702 165.374 25.3855C165.612 26.1009 165.732 26.9206 165.732 27.8447V37.5769H162.05V27.8447C162.05 26.871 161.837 26.1407 161.41 25.6538C160.982 25.157 160.356 24.9086 159.532 24.9086C159.154 24.9086 158.801 24.9732 158.473 25.1024C158.155 25.2315 157.872 25.4203 157.624 25.6687C157.385 25.9072 157.197 26.2102 157.058 26.5779C156.918 26.9455 156.849 27.3678 156.849 27.8447V37.5769H153.153V27.8447C153.153 26.8213 152.944 26.0761 152.527 25.6091C152.119 25.1421 151.518 24.9086 150.723 24.9086C150.187 24.9086 149.685 25.0428 149.218 25.311C148.761 25.5694 148.334 25.9271 147.936 26.3841V37.5769H144.255ZM172.196 33.6125C172.613 34.1192 173.065 34.4769 173.552 34.6856C174.049 34.8942 174.585 34.9986 175.161 34.9986C175.718 34.9986 176.22 34.8942 176.667 34.6856C177.114 34.4769 177.491 34.159 177.799 33.7317C178.117 33.3045 178.361 32.7679 178.53 32.1221C178.699 31.4663 178.783 30.6963 178.783 29.812C178.783 28.9178 178.709 28.1626 178.559 27.5466C178.42 26.9206 178.217 26.4139 177.948 26.0264C177.68 25.6389 177.352 25.3557 176.965 25.1769C176.587 24.998 176.155 24.9086 175.668 24.9086C174.903 24.9086 174.252 25.0726 173.716 25.4004C173.179 25.7184 172.672 26.1705 172.196 26.7567V33.6125ZM172.002 24.3721C172.628 23.6666 173.338 23.0953 174.133 22.6581C174.928 22.2209 175.862 22.0024 176.935 22.0024C177.77 22.0024 178.53 22.1762 179.215 22.524C179.911 22.8718 180.507 23.3785 181.004 24.0442C181.51 24.7 181.898 25.5147 182.166 26.4884C182.444 27.4522 182.584 28.5601 182.584 29.812C182.584 30.9546 182.43 32.0128 182.122 32.9865C181.814 33.9603 181.371 34.8048 180.795 35.5202C180.229 36.2356 179.538 36.797 178.723 37.2043C177.919 37.6018 177.014 37.8005 176.011 37.8005C175.156 37.8005 174.426 37.6713 173.82 37.413C173.214 37.1447 172.672 36.7771 172.196 36.3101V42.5697H168.514V22.2855H170.765C171.242 22.2855 171.555 22.5091 171.704 22.9562L172.002 24.3721Z" fill="#002D45"/>
<path d="M47.7128 20.6357C35.8161 21.8403 23.9475 20.6357 17.6063 6.7698C16.7365 4.86499 16.3157 2.76409 15.5861 0.803245C15.4739 0.495113 15.3336 0.158969 15.025 0.0469211C14.6322 -0.121151 14.1552 0.186981 13.9868 0.579149C13.3695 2.03577 13.9307 4.36077 14.1832 5.84541C14.5199 7.75022 15.5581 13.6327 21.4784 20.2716C20.1035 23.9132 20.328 28.4231 20.805 32.2327C21.31 36.3225 22.4604 40.3562 24.2561 44.0818C26.0519 47.8354 28.5771 51.3929 32.1405 53.5219C32.5333 53.7459 33.2909 54.0261 33.7679 53.9981C34.2168 53.97 34.4413 53.2697 34.1607 52.9056C32.365 50.6646 31.5513 47.8354 30.7657 45.0622C30.2887 43.4095 29.8397 41.7288 29.5311 40.0481C28.7174 35.4821 29.1663 30.7201 30.5131 26.2662C30.5131 26.2662 30.5131 26.2662 30.5131 26.2382C36.0687 27.1065 42.4098 25.2857 47.2639 22.4005C47.6848 22.1484 48.1057 21.8683 48.274 21.4201C48.4424 20.9439 48.1898 20.5797 47.7128 20.6357Z" fill="#F4831F"/>
<path d="M47.7128 20.6357C35.8161 21.8402 23.9474 20.6357 17.6063 6.76977C17.0171 5.45321 16.6242 4.05261 16.2034 2.65201C16.512 8.0023 18.925 13.2405 22.8532 16.9101C27.2864 21.0559 33.5995 23.1288 39.632 22.4285C37.0787 24.7815 31.0462 24.7815 26.8374 23.1008C26.613 23.0167 22.2359 32.905 31.1584 50.9447C31.8038 52.2613 31.3268 52.8215 30.7095 52.4294C31.0742 52.8495 31.6915 53.1857 32.1685 53.4658C32.5613 53.6899 33.3189 53.97 33.7959 53.942C34.2448 53.914 34.4693 53.2137 34.1887 52.8495C32.393 50.6086 31.5793 47.7794 30.7937 45.0062C30.3167 43.3535 29.8677 41.6727 29.5591 39.992C28.7454 35.4261 29.1943 30.664 30.5411 26.2101C30.5411 26.2101 30.5411 26.2101 30.5411 26.1821C36.0967 27.0505 42.4378 25.2297 47.2919 22.3445C47.7128 22.0923 48.1337 21.8122 48.302 21.364C48.4423 20.9439 48.1898 20.5797 47.7128 20.6357Z" fill="#F4831F"/>
<path d="M27.2302 13.1845C26.2201 11.868 25.8554 10.0472 26.641 8.28243C27.9317 5.3972 31.6634 3.49238 34.7218 4.61286C35.9283 5.06105 36.8261 6.01346 37.3312 7.16195C39.0989 11.2517 35.1146 15.5095 30.962 15.1454C29.4188 15.0333 28.1 14.277 27.2302 13.1845Z" fill="#FFE68D"/>
<path d="M36.3774 5.70538C36.5457 6.37767 36.5738 7.04996 36.4335 7.72225C35.9845 9.96321 34.0766 11.728 31.888 12.4003C30.2045 12.9045 28.2405 12.7924 26.8375 11.728C26.6411 11.5879 26.4728 11.4198 26.3044 11.2238C26.4447 11.9521 26.7814 12.5963 27.2304 13.1846C28.0721 14.2771 29.4189 15.0334 30.9341 15.1734C35.0867 15.5096 39.0709 11.2798 37.3033 7.19002C37.0788 6.62978 36.7702 6.12556 36.3774 5.70538Z" fill="#FFE68D"/>
<path d="M0.0137796 35.6502C-0.0423369 35.1179 0.0698961 34.5857 0.406595 34.0535C1.22028 32.821 2.98795 32.5689 4.22252 33.2692C5.8499 34.1655 5.84989 36.5185 4.25057 37.471C3.60524 37.8631 2.8196 37.9191 2.09009 37.8071C0.939702 37.583 0.126013 36.6866 0.0137796 35.6502Z" fill="#FFE68D"/>
<path d="M43.532 16.3779C43.2514 16.8541 42.7744 17.2183 42.1852 17.3863C41.3996 17.6104 40.4737 17.4984 39.8283 16.9381C39.0988 16.3219 38.9305 15.1174 39.2672 14.249C39.688 13.1845 40.9507 12.4562 42.073 12.8764C43.027 13.2406 43.7845 14.221 43.8126 15.2574C43.8406 15.6776 43.7284 16.0418 43.532 16.3779Z" fill="#FFE68D"/>
<path d="M14.4637 36.2664C11.4615 34.6698 7.98225 31.7565 7.39302 31.1122C4.53108 27.9469 2.28642 24.0812 1.55691 19.8234C0.855451 15.9017 1.58497 9.54297 6.60739 8.92671C9.80603 8.53454 12.1629 11.5879 12.8363 14.3891C13.5378 17.3583 13.2572 20.4116 13.3975 23.4089C13.5658 26.4062 14.4356 29.1514 15.9788 31.7285C16.7925 33.0731 18.3357 34.1375 18.953 35.5661C19.0372 35.7342 19.0933 35.9303 19.0372 36.1264C18.7286 37.9191 16.7084 37.471 14.4637 36.2664Z" fill="#F4831F"/>
<path d="M16.3716 37.1068C17.7745 37.527 18.8127 37.3869 19.0372 36.1264C19.0652 35.9303 19.0091 35.7342 18.953 35.5661C18.3638 34.1375 16.7925 33.1011 15.9788 31.7285C14.4356 29.1514 13.5658 26.4062 13.3975 23.4089C13.2291 20.4116 13.5377 17.3583 12.8363 14.3891C12.1629 11.5879 9.806 8.53454 6.60736 8.92671C5.45697 9.06677 4.5591 9.51496 3.82959 10.1312C5.03609 9.99117 6.29872 10.2433 7.28075 10.9436C8.76784 12.008 9.4693 13.8568 9.806 15.6496C10.4233 18.7869 10.1988 22.0363 10.6477 25.2297C11.0967 28.3951 12.3593 31.7285 15.0529 33.4372C15.8666 33.9414 16.8767 34.4176 17.1011 35.342C17.2695 36.0423 16.9328 36.6586 16.3716 37.1068Z" fill="#F4831F"/>
<path d="M24.3122 48.3396C21.3661 44.1098 16.0069 40.9164 11.1248 40.2722C7.72976 39.824 2.56704 42.149 4.75558 46.3228C5.65345 48.0035 7.44917 48.4797 9.2449 48.4237C11.5176 48.3396 13.9587 48.2556 16.2875 48.6197C18.7566 49.0119 20.4963 50.1884 22.7129 51.1969C23.3021 51.477 24.8733 52.2613 25.5467 51.8691C26.613 51.2529 24.7611 48.9839 24.3122 48.3396Z" fill="#F4831F"/>
<path d="M23.8071 49.3761C23.0775 49.4881 22.5444 48.7878 22.0674 48.2556C20.7206 46.7149 18.7005 45.9026 16.6803 45.7065C14.6601 45.4824 12.6118 45.8186 10.6197 46.2387C9.41318 46.4909 8.20667 46.799 7.00017 46.743C6.15842 46.7149 5.28861 46.4628 4.58716 45.9866C4.64327 46.1267 4.69939 46.2668 4.78357 46.4068C5.68143 48.0875 7.47716 48.5637 9.27288 48.5077C11.5456 48.4237 13.9867 48.3396 16.3155 48.7038C18.7846 49.096 20.5242 50.2725 22.7408 51.2809C23.3301 51.561 24.9013 52.3454 25.5747 51.9532C26.5006 51.393 25.2661 49.6562 24.6207 48.7598C24.4243 49.0399 24.1718 49.3201 23.8071 49.3761Z" fill="#F4831F"/>
<path d="M36.265 52.0092C36.0125 51.8131 35.788 51.561 35.6197 51.2529C34.5535 49.4041 34.5535 46.799 34.5535 44.7261C34.5535 42.5972 34.7779 40.4402 35.283 38.3674C36.237 34.3897 38.2291 30.4119 41.7925 28.171C44.2055 26.6303 47.4603 25.958 50.1539 27.2186C52.5669 28.3391 54.3065 31.5044 52.7913 33.9695C51.3323 36.3225 48.1898 36.9387 46.0293 38.4234C44.2055 39.6559 42.6904 41.5327 41.6803 43.4936C40.7543 45.2863 40.5579 47.2472 40.1371 49.18C39.8565 50.3845 39.2392 52.0372 37.8643 52.3734C37.219 52.4854 36.6859 52.3173 36.265 52.0092Z" fill="#F4831F"/>
<path fill-rule="evenodd" clip-rule="evenodd" d="M3.94714 13.654C3.80109 13.5744 3.58729 13.6133 3.52087 13.8288C2.59495 17.5824 3.18417 21.6161 5.12019 24.9776C5.65329 25.93 6.32669 26.8264 7.05621 27.6107C7.0733 27.6299 7.09154 27.6452 7.11052 27.657C7.09153 27.6452 7.07328 27.6299 7.05618 27.6107C6.32667 26.8263 5.65327 25.93 5.12016 24.9776C3.18414 21.6161 2.59492 17.5824 3.52084 13.8288C3.58726 13.6133 3.80109 13.5743 3.94714 13.654ZM6.77146 27.8709C6.0249 27.0679 5.33382 26.1485 4.78475 25.168C2.80079 21.7221 2.19642 17.5874 3.14635 13.7364L3.14899 13.7257L3.15224 13.7152C3.27813 13.3067 3.66622 13.1741 3.97073 13.252C4.11944 13.2901 4.2659 13.3801 4.36454 13.5252C4.46785 13.677 4.50187 13.8651 4.45781 14.0557L4.45636 14.062L4.4563 14.062C3.33758 18.5568 4.59324 23.519 7.7283 26.9244C7.87126 27.0711 7.9283 27.2577 7.90932 27.4383C7.89136 27.6091 7.80867 27.7546 7.70857 27.858C7.6092 27.9606 7.46544 28.0496 7.29276 28.0699C7.10534 28.0919 6.9131 28.0276 6.77146 27.8709ZM23.3888 37.1363C23.3772 37.119 23.3669 37.0998 23.3582 37.0788C22.1236 32.905 21.843 28.4791 22.5445 24.1653C22.5486 24.1385 22.5554 24.1145 22.5646 24.093C22.5554 24.1144 22.5486 24.1385 22.5444 24.1653C21.843 28.4791 22.1236 32.905 23.3581 37.0788C23.3669 37.0998 23.3772 37.119 23.3888 37.1363ZM22.4796 23.6434C22.3067 23.7373 22.1949 23.9046 22.1635 24.1046C21.453 28.4752 21.7373 32.9592 22.9882 37.1882L22.9941 37.2082L23.0022 37.2274C23.1613 37.6086 23.5502 37.7097 23.8379 37.6287C23.984 37.5875 24.1321 37.4945 24.2271 37.3401C24.3267 37.1784 24.3453 36.9857 24.2887 36.7997C23.0988 32.7654 22.8223 28.5104 23.4865 24.3664L23.4868 24.3641C23.5528 23.9361 23.2421 23.6582 22.9605 23.5879C22.8164 23.552 22.6403 23.5561 22.4796 23.6434ZM26.7183 43.7699C26.1574 42.37 25.596 40.9686 25.0344 39.595C24.9805 39.4612 24.8841 39.3313 24.7494 39.2444C24.6151 39.1576 24.4275 39.1075 24.2302 39.1736C24.0549 39.2193 23.9195 39.3377 23.8394 39.4686C23.7528 39.61 23.7024 39.8152 23.7858 40.0235L23.786 40.0239C24.3468 41.4238 24.9083 42.8252 25.4699 44.1987C25.5238 44.3325 25.6202 44.4624 25.7548 44.5494C25.8892 44.6362 26.0768 44.6862 26.2741 44.6202C26.4494 44.5745 26.5847 44.4561 26.6649 44.3252C26.7515 44.1837 26.8019 43.9785 26.7185 43.7703L26.7183 43.7699ZM26.3604 43.9137C25.7993 42.5131 25.2381 41.1125 24.6769 39.74C24.6675 39.7163 24.6556 39.6935 24.6417 39.6721C24.6556 39.6935 24.6674 39.7163 24.6769 39.74C25.2381 41.1125 25.7992 42.5131 26.3604 43.9137C26.4165 44.0538 26.3043 44.2219 26.164 44.2499C26.1599 44.2515 26.1559 44.253 26.1518 44.2543C26.1559 44.253 26.16 44.2515 26.164 44.2499C26.3043 44.2219 26.4165 44.0538 26.3604 43.9137ZM15.7823 43.6056C15.8421 43.6533 15.87 43.7099 15.8743 43.7673C15.87 43.7099 15.8421 43.6533 15.7823 43.6056L15.7823 43.6056ZM6.57924 43.3535C6.60435 43.3376 6.62954 43.3219 6.65479 43.3064C6.62953 43.3219 6.60434 43.3376 6.57922 43.3535C6.55384 43.3696 6.52866 43.381 6.50398 43.3882C6.52867 43.381 6.55386 43.3696 6.57924 43.3535ZM6.09282 42.5231C9.21177 40.5549 13.2671 40.9075 16.0306 43.3104C16.1892 43.4407 16.2721 43.6258 16.2593 43.8224C16.2475 44.0041 16.1574 44.1544 16.0549 44.2567C15.8601 44.4512 15.4634 44.6008 15.1208 44.3272L15.1133 44.3212L15.1061 44.3148C12.7962 42.2738 9.39304 42.0325 6.78522 43.6796C6.61368 43.7883 6.41584 43.8127 6.23412 43.749C6.06462 43.6895 5.94264 43.5658 5.87043 43.436C5.72925 43.1823 5.71985 42.76 6.09182 42.5237L6.09282 42.5231ZM37.4691 36.9793C37.5089 36.9447 37.54 36.8944 37.5557 36.8267C38.0607 34.6978 39.155 32.849 40.7543 31.3644C40.8555 31.2735 40.8691 31.1645 40.832 31.074C40.869 31.1645 40.8554 31.2735 40.7543 31.3644C39.1549 32.849 38.0607 34.6978 37.5556 36.8267C37.54 36.8944 37.5089 36.9447 37.4691 36.9793ZM40.1037 30.6853L40.1036 30.6852L40.0962 30.6922C38.3892 32.3098 37.199 34.3075 36.6476 36.5963L36.6468 36.5998C36.6027 36.7904 36.6369 36.9776 36.7385 37.1287C36.8355 37.2729 36.9801 37.364 37.128 37.4029C37.2757 37.4417 37.4495 37.4341 37.6071 37.3497C37.7728 37.261 37.8869 37.1052 37.9312 36.9149C38.4181 34.8631 39.4715 33.0822 41.0149 31.6488C41.1592 31.5178 41.2413 31.3418 41.2364 31.1514C41.2317 30.9699 41.1492 30.8144 41.0409 30.7063C40.8216 30.4873 40.4204 30.4008 40.1037 30.6853ZM45.5498 27.3695L45.5421 27.3707L45.5344 27.3722C44.1678 27.6392 42.9526 28.2916 41.9492 29.2345L41.9491 29.2343L41.9408 29.2426C41.8001 29.3831 41.7339 29.5646 41.7481 29.7483C41.7614 29.9212 41.8432 30.0692 41.9478 30.1737C42.0525 30.2782 42.2005 30.3596 42.3732 30.3728C42.5542 30.3867 42.7334 30.3228 42.8733 30.1859C43.7192 29.3954 44.7169 28.8729 45.8153 28.663C46.0053 28.6316 46.1709 28.528 46.267 28.3594C46.3585 28.199 46.3633 28.0218 46.3251 27.8766C46.2488 27.5873 45.9607 27.3064 45.5498 27.3695Z" fill="#F4831F"/>
<path d="M50.0975 27.1906C49.6205 26.9665 49.1435 26.8264 48.6385 26.7144C48.9752 26.9105 49.3119 27.1346 49.6205 27.3867C50.8551 28.5352 51.304 30.58 50.35 31.9526C49.7047 32.905 48.5824 33.3812 47.46 33.6334C46.3377 33.9135 45.1873 33.9975 44.1211 34.3897C41.7923 35.23 40.1088 37.387 39.2109 39.6839C38.313 42.0089 38.0886 44.502 37.808 46.9671C37.7519 47.5553 37.6677 48.1716 37.3591 48.6758C37.0504 49.18 36.4331 49.5442 35.8439 49.3481C35.423 49.208 35.1425 48.8159 34.8899 48.4237C34.7777 48.2556 34.6935 48.0595 34.5813 47.8915C34.7216 49.096 34.9741 50.2725 35.5353 51.2249C35.7036 51.533 35.9281 51.7851 36.1806 51.9812C36.6015 52.3174 37.1627 52.4574 37.7519 52.3174C39.1267 51.9812 39.744 50.3285 40.0246 49.124C40.4455 47.1912 40.6419 45.2023 41.5678 43.4376C42.5779 41.4767 44.093 39.5999 45.9168 38.3674C48.0773 36.9108 51.2198 36.2665 52.6789 33.9135C54.2501 31.4764 52.5105 28.3111 50.0975 27.1906Z" fill="#F4831F"/>
</svg>
