<svg width="185" height="54" viewBox="0 0 185 54" fill="none" xmlns="http://www.w3.org/2000/svg">
<path d="M66.4803 25.0577H67.4192C67.7968 25.0577 68.1097 25.008 68.3581 24.9086C68.6065 24.7993 68.8202 24.6304 68.999 24.4019L74.9457 16.8754C75.1941 16.5575 75.4524 16.3389 75.7207 16.2196C75.9989 16.0905 76.3466 16.0259 76.7639 16.0259H80.2216L72.9634 24.9831C72.5362 25.5296 72.0941 25.9171 71.637 26.1456C71.9649 26.2649 72.258 26.4338 72.5163 26.6524C72.7846 26.861 73.038 27.1392 73.2764 27.487L80.7582 37.5769H77.226C76.749 37.5769 76.3913 37.5124 76.1529 37.3832C75.9244 37.2441 75.7306 37.0454 75.5716 36.787L69.4759 28.8283C69.2872 28.5601 69.0686 28.3713 68.8202 28.262C68.5718 28.1527 68.2141 28.0981 67.7471 28.0981H66.4803V37.5769H62.4711V16.0259H66.4803V25.0577ZM85.4234 22.2855V37.5769H81.7272V22.2855H85.4234ZM85.9301 17.8293C85.9301 18.1472 85.8655 18.4453 85.7363 18.7235C85.6072 19.0017 85.4333 19.2451 85.2147 19.4538C85.006 19.6624 84.7577 19.8314 84.4695 19.9605C84.1814 20.0798 83.8734 20.1394 83.5455 20.1394C83.2275 20.1394 82.9245 20.0798 82.6363 19.9605C82.3581 19.8314 82.1147 19.6624 81.906 19.4538C81.6974 19.2451 81.5285 19.0017 81.3993 18.7235C81.2801 18.4453 81.2205 18.1472 81.2205 17.8293C81.2205 17.5014 81.2801 17.1934 81.3993 16.9052C81.5285 16.6171 81.6974 16.3687 81.906 16.16C82.1147 15.9514 82.3581 15.7874 82.6363 15.6682C82.9245 15.539 83.2275 15.4745 83.5455 15.4745C83.8734 15.4745 84.1814 15.539 84.4695 15.6682C84.7577 15.7874 85.006 15.9514 85.2147 16.16C85.4333 16.3687 85.6072 16.6171 85.7363 16.9052C85.8655 17.1934 85.9301 17.5014 85.9301 17.8293ZM98.0579 26.1904C97.6406 25.6836 97.1836 25.3259 96.6868 25.1173C96.1999 24.9086 95.6733 24.8043 95.107 24.8043C94.5505 24.8043 94.0488 24.9086 93.6017 25.1173C93.1545 25.3259 92.772 25.6439 92.4541 26.0711C92.1361 26.4884 91.8927 27.025 91.7238 27.6807C91.5549 28.3266 91.4704 29.0916 91.4704 29.9759C91.4704 30.8702 91.54 31.6303 91.6791 32.2562C91.8281 32.8723 92.0367 33.379 92.305 33.7764C92.5733 34.1639 92.9012 34.4471 93.2887 34.626C93.6762 34.7949 94.1084 34.8793 94.5853 34.8793C95.3504 34.8793 96.0012 34.7204 96.5377 34.4024C97.0743 34.0845 97.581 33.6324 98.0579 33.0461V26.1904ZM101.739 15.4297V37.5769H99.4887C99.0018 37.5769 98.6938 37.3534 98.5647 36.9063L98.2517 35.4308C97.6356 36.1362 96.9252 36.7075 96.1204 37.1447C95.3255 37.5819 94.3965 37.8005 93.3334 37.8005C92.4988 37.8005 91.7337 37.6266 91.0382 37.2789C90.3427 36.9311 89.7415 36.4293 89.2348 35.7736C88.738 35.1079 88.3505 34.2881 88.0723 33.3144C87.804 32.3407 87.6699 31.2279 87.6699 29.9759C87.6699 28.8432 87.8239 27.79 88.1319 26.8163C88.4399 25.8426 88.8821 24.998 89.4584 24.2827C90.0347 23.5673 90.7252 23.0109 91.53 22.6134C92.3348 22.206 93.239 22.0024 94.2425 22.0024C95.097 22.0024 95.8273 22.1365 96.4334 22.4048C97.0395 22.673 97.581 23.0357 98.0579 23.4927V15.4297H101.739ZM113.986 25.2663C113.886 25.4253 113.782 25.5396 113.673 25.6091C113.563 25.6687 113.424 25.6985 113.255 25.6985C113.076 25.6985 112.883 25.6488 112.674 25.5495C112.475 25.4501 112.242 25.3408 111.974 25.2216C111.705 25.0924 111.397 24.9782 111.049 24.8788C110.712 24.7795 110.309 24.7298 109.842 24.7298C109.117 24.7298 108.546 24.8838 108.128 25.1918C107.721 25.4998 107.517 25.9022 107.517 26.399C107.517 26.7269 107.622 27.0051 107.83 27.2336C108.049 27.4522 108.332 27.646 108.68 27.8149C109.037 27.9838 109.44 28.1378 109.887 28.2769C110.334 28.4061 110.786 28.5501 111.243 28.7091C111.71 28.8681 112.167 29.0519 112.614 29.2606C113.062 29.4593 113.459 29.7176 113.807 30.0356C114.164 30.3436 114.448 30.7162 114.656 31.1534C114.875 31.5905 114.984 32.1171 114.984 32.7332C114.984 33.4684 114.85 34.149 114.582 34.775C114.323 35.391 113.936 35.9276 113.419 36.3846C112.903 36.8317 112.262 37.1845 111.497 37.4428C110.741 37.6912 109.867 37.8154 108.874 37.8154C108.347 37.8154 107.83 37.7657 107.324 37.6664C106.827 37.5769 106.345 37.4478 105.878 37.2789C105.421 37.1099 104.994 36.9112 104.596 36.6827C104.209 36.4542 103.866 36.2058 103.568 35.9375L104.417 34.5365C104.527 34.3676 104.656 34.2385 104.805 34.149C104.954 34.0596 105.143 34.0149 105.371 34.0149C105.6 34.0149 105.813 34.0795 106.012 34.2087C106.221 34.3378 106.459 34.4769 106.727 34.626C106.996 34.775 107.309 34.9141 107.666 35.0433C108.034 35.1724 108.496 35.237 109.052 35.237C109.49 35.237 109.862 35.1873 110.17 35.088C110.488 34.9787 110.746 34.8396 110.945 34.6707C111.154 34.5018 111.303 34.308 111.392 34.0894C111.492 33.8609 111.541 33.6274 111.541 33.3889C111.541 33.0312 111.432 32.7381 111.213 32.5096C111.005 32.2811 110.722 32.0824 110.364 31.9135C110.016 31.7445 109.614 31.5955 109.157 31.4663C108.71 31.3272 108.248 31.1782 107.771 31.0192C107.304 30.8602 106.842 30.6764 106.385 30.4678C105.937 30.2492 105.535 29.9759 105.177 29.6481C104.83 29.3202 104.546 28.9178 104.328 28.4408C104.119 27.9639 104.015 27.3876 104.015 26.712C104.015 26.086 104.139 25.4899 104.387 24.9235C104.636 24.3572 104.999 23.8653 105.475 23.448C105.962 23.0208 106.563 22.683 107.279 22.4346C108.004 22.1762 108.839 22.0471 109.783 22.0471C110.836 22.0471 111.795 22.2209 112.659 22.5687C113.524 22.9165 114.244 23.3735 114.82 23.9399L113.986 25.2663ZM127.993 25.5197C127.883 25.6588 127.774 25.7681 127.665 25.8476C127.565 25.9271 127.416 25.9668 127.218 25.9668C127.029 25.9668 126.845 25.9121 126.666 25.8029C126.487 25.6836 126.274 25.5545 126.025 25.4154C125.777 25.2663 125.479 25.1371 125.131 25.0279C124.793 24.9086 124.371 24.849 123.864 24.849C123.218 24.849 122.652 24.9682 122.165 25.2067C121.678 25.4352 121.271 25.7681 120.943 26.2053C120.625 26.6424 120.387 27.174 120.228 27.8C120.069 28.416 119.989 29.1165 119.989 29.9014C119.989 30.7162 120.074 31.4415 120.243 32.0774C120.421 32.7133 120.675 33.2498 121.003 33.687C121.331 34.1143 121.728 34.4421 122.195 34.6707C122.662 34.8893 123.189 34.9986 123.775 34.9986C124.361 34.9986 124.833 34.929 125.191 34.7899C125.558 34.6409 125.866 34.4819 126.115 34.313C126.363 34.1341 126.577 33.9752 126.756 33.8361C126.944 33.687 127.153 33.6125 127.382 33.6125C127.68 33.6125 127.903 33.7268 128.052 33.9553L129.11 35.2966C128.703 35.7736 128.261 36.176 127.784 36.5039C127.307 36.8218 126.81 37.0801 126.294 37.2789C125.787 37.4676 125.26 37.6018 124.714 37.6813C124.177 37.7607 123.641 37.8005 123.104 37.8005C122.16 37.8005 121.271 37.6266 120.436 37.2789C119.602 36.9212 118.871 36.4045 118.246 35.7289C117.62 35.0532 117.123 34.2285 116.755 33.2548C116.397 32.2711 116.219 31.1534 116.219 29.9014C116.219 28.7787 116.378 27.7404 116.696 26.7865C117.023 25.8227 117.5 24.9931 118.126 24.2976C118.752 23.5921 119.527 23.0407 120.451 22.6432C121.375 22.2458 122.438 22.0471 123.641 22.0471C124.783 22.0471 125.782 22.2309 126.636 22.5985C127.501 22.9661 128.276 23.4927 128.961 24.1783L127.993 25.5197ZM138.78 31.049C137.716 31.0987 136.822 31.1931 136.097 31.3322C135.372 31.4614 134.79 31.6303 134.353 31.8389C133.916 32.0476 133.603 32.291 133.414 32.5692C133.225 32.8474 133.131 33.1505 133.131 33.4784C133.131 34.1242 133.32 34.5862 133.697 34.8644C134.085 35.1426 134.587 35.2817 135.203 35.2817C135.958 35.2817 136.609 35.1476 137.155 34.8793C137.712 34.6011 138.253 34.1838 138.78 33.6274V31.049ZM130.344 24.4168C132.103 22.8072 134.219 22.0024 136.693 22.0024C137.587 22.0024 138.387 22.1514 139.093 22.4495C139.798 22.7376 140.394 23.145 140.881 23.6716C141.368 24.1883 141.736 24.8093 141.984 25.5346C142.242 26.2599 142.371 27.0548 142.371 27.9192V37.5769H140.702C140.354 37.5769 140.086 37.5273 139.897 37.4279C139.709 37.3186 139.56 37.105 139.45 36.787L139.122 35.6841C138.735 36.0319 138.357 36.3399 137.99 36.6082C137.622 36.8665 137.24 37.0851 136.842 37.264C136.445 37.4428 136.017 37.5769 135.56 37.6664C135.113 37.7657 134.616 37.8154 134.07 37.8154C133.424 37.8154 132.828 37.7309 132.282 37.562C131.735 37.3832 131.263 37.1199 130.866 36.7721C130.468 36.4244 130.16 35.9922 129.942 35.4755C129.723 34.9588 129.614 34.3577 129.614 33.6721C129.614 33.2846 129.678 32.9021 129.807 32.5245C129.937 32.137 130.145 31.7694 130.433 31.4216C130.732 31.0739 131.114 30.746 131.581 30.438C132.048 30.13 132.619 29.8617 133.295 29.6332C133.981 29.4046 134.775 29.2208 135.68 29.0817C136.584 28.9327 137.617 28.8432 138.78 28.8134V27.9192C138.78 26.8958 138.561 26.1407 138.124 25.6538C137.687 25.157 137.056 24.9086 136.231 24.9086C135.635 24.9086 135.138 24.9782 134.741 25.1173C134.353 25.2564 134.01 25.4154 133.712 25.5942C133.414 25.7631 133.141 25.9171 132.893 26.0562C132.654 26.1953 132.386 26.2649 132.088 26.2649C131.829 26.2649 131.611 26.2003 131.432 26.0711C131.253 25.932 131.109 25.773 131 25.5942L130.344 24.4168ZM145.122 37.5769V22.2855H147.372C147.849 22.2855 148.162 22.5091 148.311 22.9562L148.55 24.0889C148.818 23.7908 149.096 23.5176 149.384 23.2692C149.683 23.0208 149.996 22.8072 150.323 22.6283C150.661 22.4495 151.019 22.3104 151.396 22.211C151.784 22.1017 152.206 22.0471 152.663 22.0471C153.627 22.0471 154.417 22.3104 155.033 22.837C155.659 23.3536 156.126 24.0442 156.434 24.9086C156.672 24.4019 156.971 23.9697 157.328 23.612C157.686 23.2444 158.078 22.9463 158.506 22.7177C158.933 22.4892 159.385 22.3203 159.862 22.211C160.349 22.1017 160.836 22.0471 161.322 22.0471C162.167 22.0471 162.917 22.1762 163.573 22.4346C164.229 22.6929 164.78 23.0705 165.227 23.5673C165.674 24.0641 166.012 24.6702 166.241 25.3855C166.479 26.1009 166.598 26.9206 166.598 27.8447V37.5769H162.917V27.8447C162.917 26.871 162.704 26.1407 162.276 25.6538C161.849 25.157 161.223 24.9086 160.398 24.9086C160.021 24.9086 159.668 24.9732 159.34 25.1024C159.022 25.2315 158.739 25.4203 158.491 25.6687C158.252 25.9072 158.063 26.2102 157.924 26.5779C157.785 26.9455 157.716 27.3678 157.716 27.8447V37.5769H154.02V27.8447C154.02 26.8213 153.811 26.0761 153.394 25.6091C152.986 25.1421 152.385 24.9086 151.59 24.9086C151.054 24.9086 150.552 25.0428 150.085 25.311C149.628 25.5694 149.201 25.9271 148.803 26.3841V37.5769H145.122ZM173.062 33.6125C173.48 34.1192 173.932 34.4769 174.419 34.6856C174.915 34.8942 175.452 34.9986 176.028 34.9986C176.585 34.9986 177.086 34.8942 177.534 34.6856C177.981 34.4769 178.358 34.159 178.666 33.7317C178.984 33.3045 179.228 32.7679 179.397 32.1221C179.565 31.4663 179.65 30.6963 179.65 29.812C179.65 28.9178 179.575 28.1626 179.426 27.5466C179.287 26.9206 179.084 26.4139 178.815 26.0264C178.547 25.6389 178.219 25.3557 177.832 25.1769C177.454 24.998 177.022 24.9086 176.535 24.9086C175.77 24.9086 175.119 25.0726 174.583 25.4004C174.046 25.7184 173.539 26.1705 173.062 26.7567V33.6125ZM172.869 24.3721C173.495 23.6666 174.205 23.0953 175 22.6581C175.795 22.2209 176.729 22.0024 177.802 22.0024C178.636 22.0024 179.397 22.1762 180.082 22.524C180.778 22.8718 181.374 23.3785 181.871 24.0442C182.377 24.7 182.765 25.5147 183.033 26.4884C183.311 27.4522 183.45 28.5601 183.45 29.812C183.45 30.9546 183.296 32.0128 182.988 32.9865C182.68 33.9603 182.238 34.8048 181.662 35.5202C181.096 36.2356 180.405 36.797 179.59 37.2043C178.785 37.6018 177.881 37.8005 176.878 37.8005C176.023 37.8005 175.293 37.6713 174.687 37.413C174.081 37.1447 173.539 36.7771 173.062 36.3101V42.5697H169.381V22.2855H171.632C172.108 22.2855 172.421 22.5091 172.571 22.9562L172.869 24.3721Z" fill="#FDFAF8"/>
<path d="M48.5797 20.6357C36.683 21.8403 24.8143 20.6357 18.4732 6.7698C17.6034 4.86499 17.1825 2.76409 16.453 0.803245C16.3407 0.495113 16.2004 0.158969 15.8918 0.0469211C15.499 -0.121151 15.022 0.186981 14.8537 0.579149C14.2364 2.03577 14.7975 4.36077 15.0501 5.84541C15.3868 7.75022 16.4249 13.6327 22.3452 20.2716C20.9703 23.9132 21.1948 28.4231 21.6718 32.2327C22.1769 36.3225 23.3272 40.3562 25.123 44.0818C26.9187 47.8354 29.4439 51.3929 33.0073 53.5219C33.4002 53.7459 34.1577 54.0261 34.6347 53.9981C35.0836 53.97 35.3081 53.2697 35.0275 52.9056C33.2318 50.6646 32.4181 47.8354 31.6325 45.0622C31.1555 43.4095 30.7066 41.7288 30.3979 40.0481C29.5842 35.4821 30.0332 30.7201 31.38 26.2662C31.38 26.2662 31.38 26.2662 31.38 26.2382C36.9355 27.1065 43.2767 25.2857 48.1307 22.4005C48.5516 22.1484 48.9725 21.8683 49.1408 21.4201C49.3092 20.9439 49.0567 20.5797 48.5797 20.6357Z" fill="#F4831F"/>
<path d="M48.5797 20.6357C36.683 21.8402 24.8144 20.6357 18.4732 6.76977C17.884 5.45321 17.4912 4.05261 17.0703 2.65201C17.379 8.0023 19.792 13.2405 23.7201 16.9101C28.1533 21.0559 34.4664 23.1288 40.499 22.4285C37.9457 24.7815 31.9131 24.7815 27.7044 23.1008C27.4799 23.0167 23.1028 32.905 32.0254 50.9447C32.6707 52.2613 32.1937 52.8215 31.5764 52.4294C31.9412 52.8495 32.5585 53.1857 33.0355 53.4658C33.4283 53.6899 34.1858 53.97 34.6628 53.942C35.1118 53.914 35.3362 53.2137 35.0557 52.8495C33.2599 50.6086 32.4462 47.7794 31.6606 45.0062C31.1836 43.3535 30.7347 41.6727 30.426 39.992C29.6124 35.4261 30.0613 30.664 31.4081 26.2101C31.4081 26.2101 31.4081 26.2101 31.4081 26.1821C36.9636 27.0505 43.3048 25.2297 48.1589 22.3445C48.5797 22.0923 49.0006 21.8122 49.1689 21.364C49.3092 20.9439 49.0567 20.5797 48.5797 20.6357Z" fill="#F4831F"/>
<path d="M28.0972 13.1845C27.0871 11.868 26.7223 10.0472 27.5079 8.28243C28.7986 5.3972 32.5304 3.49238 35.5887 4.61286C36.7952 5.06105 37.6931 6.01346 38.1981 7.16195C39.9658 11.2517 35.9815 15.5095 31.8289 15.1454C30.2857 15.0333 28.967 14.277 28.0972 13.1845Z" fill="#FFE68D"/>
<path d="M37.2441 5.70538C37.4124 6.37767 37.4405 7.04996 37.3002 7.72225C36.8512 9.96321 34.9433 11.728 32.7547 12.4003C31.0712 12.9045 29.1072 12.7924 27.7042 11.728C27.5078 11.5879 27.3395 11.4198 27.1711 11.2238C27.3114 11.9521 27.6481 12.5963 28.0971 13.1846C28.9388 14.2771 30.2856 15.0334 31.8008 15.1734C35.9534 15.5096 39.9376 11.2798 38.17 7.19002C37.9455 6.62978 37.6369 6.12556 37.2441 5.70538Z" fill="#FFE68D"/>
<path d="M0.880601 35.6502C0.824484 35.1179 0.936717 34.5857 1.27342 34.0535C2.08711 32.821 3.85478 32.5689 5.08934 33.2692C6.71672 34.1655 6.71672 36.5185 5.1174 37.471C4.47206 37.8631 3.68643 37.9191 2.95691 37.8071C1.80652 37.583 0.992834 36.6866 0.880601 35.6502Z" fill="#FFE68D"/>
<path d="M44.399 16.3779C44.1184 16.8541 43.6414 17.2183 43.0522 17.3863C42.2665 17.6104 41.3406 17.4984 40.6953 16.9381C39.9658 16.3219 39.7974 15.1174 40.1341 14.249C40.555 13.1845 41.8176 12.4562 42.9399 12.8764C43.8939 13.2406 44.6515 14.221 44.6795 15.2574C44.7076 15.6776 44.5954 16.0418 44.399 16.3779Z" fill="#FFE68D"/>
<path d="M15.3305 36.2664C12.3283 34.6698 8.84907 31.7565 8.25984 31.1122C5.3979 27.9469 3.15324 24.0812 2.42373 19.8234C1.72227 15.9017 2.45179 9.54297 7.47421 8.92671C10.6729 8.53454 13.0297 11.5879 13.7031 14.3891C14.4046 17.3583 14.124 20.4116 14.2643 23.4089C14.4327 26.4062 15.3025 29.1514 16.8457 31.7285C17.6594 33.0731 19.2026 34.1375 19.8198 35.5661C19.904 35.7342 19.9601 35.9303 19.904 36.1264C19.5954 37.9191 17.5752 37.471 15.3305 36.2664Z" fill="#F4831F"/>
<path d="M17.2384 37.1068C18.6414 37.527 19.6795 37.3869 19.904 36.1264C19.932 35.9303 19.8759 35.7342 19.8198 35.5661C19.2306 34.1375 17.6593 33.1011 16.8456 31.7285C15.3024 29.1514 14.4326 26.4062 14.2643 23.4089C14.0959 20.4116 14.4046 17.3583 13.7031 14.3891C13.0297 11.5879 10.6728 8.53454 7.47418 8.92671C6.32379 9.06677 5.42593 9.51496 4.69641 10.1312C5.90292 9.99117 7.16554 10.2433 8.14758 10.9436C9.63466 12.008 10.3361 13.8568 10.6728 15.6496C11.2901 18.7869 11.0656 22.0363 11.5146 25.2297C11.9635 28.3951 13.2261 31.7285 15.9197 33.4372C16.7334 33.9414 17.7435 34.4176 17.968 35.342C18.1363 36.0423 17.7996 36.6586 17.2384 37.1068Z" fill="#F4831F"/>
<path d="M25.179 48.3396C22.2329 44.1098 16.8738 40.9164 11.9916 40.2722C8.59658 39.824 3.43386 42.149 5.6224 46.3228C6.52027 48.0035 8.31599 48.4797 10.1117 48.4237C12.3844 48.3396 14.8255 48.2556 17.1543 48.6197C19.6235 49.0119 21.3631 50.1884 23.5797 51.1969C24.1689 51.477 25.7402 52.2613 26.4136 51.8691C27.4798 51.2529 25.6279 48.9839 25.179 48.3396Z" fill="#F4831F"/>
<path d="M24.6739 49.3761C23.9444 49.4881 23.4113 48.7878 22.9343 48.2556C21.5875 46.7149 19.5673 45.9026 17.5471 45.7065C15.5269 45.4824 13.4786 45.8186 11.4865 46.2387C10.28 46.4909 9.07349 46.799 7.86699 46.743C7.02524 46.7149 6.15544 46.4628 5.45398 45.9866C5.5101 46.1267 5.56621 46.2668 5.65039 46.4068C6.54825 48.0875 8.34398 48.5637 10.1397 48.5077C12.4124 48.4237 14.8535 48.3396 17.1823 48.7038C19.6515 49.096 21.3911 50.2725 23.6077 51.2809C24.1969 51.561 25.7681 52.3454 26.4415 51.9532C27.3675 51.393 26.1329 49.6562 25.4876 48.7598C25.2912 49.0399 25.0386 49.3201 24.6739 49.3761Z" fill="#F4831F"/>
<path d="M37.1318 52.0092C36.8793 51.8131 36.6549 51.561 36.4865 51.2529C35.4203 49.4041 35.4203 46.799 35.4203 44.7261C35.4203 42.5972 35.6448 40.4402 36.1498 38.3674C37.1038 34.3897 39.0959 30.4119 42.6593 28.171C45.0723 26.6303 48.3271 25.958 51.0207 27.2186C53.4337 28.3391 55.1733 31.5044 53.6581 33.9695C52.1991 36.3225 49.0566 36.9387 46.8961 38.4234C45.0723 39.6559 43.5572 41.5327 42.5471 43.4936C41.6212 45.2863 41.4248 47.2472 41.0039 49.18C40.7233 50.3845 40.106 52.0372 38.7312 52.3734C38.0858 52.4854 37.5527 52.3173 37.1318 52.0092Z" fill="#F4831F"/>
<path fill-rule="evenodd" clip-rule="evenodd" d="M4.81409 13.654C4.66804 13.5744 4.45423 13.6133 4.38781 13.8288C3.46189 17.5824 4.05111 21.6161 5.98713 24.9776C6.52024 25.93 7.19364 26.8264 7.92315 27.6107C7.94024 27.6299 7.95848 27.6452 7.97747 27.657C7.95847 27.6452 7.94023 27.6299 7.92313 27.6107C7.19361 26.8263 6.52021 25.93 5.98711 24.9776C4.05109 21.6161 3.46186 17.5824 4.38779 13.8288C4.45421 13.6133 4.66804 13.5743 4.81409 13.654ZM7.6384 27.8709C6.89184 27.0679 6.20076 26.1485 5.65169 25.168C3.66773 21.7221 3.06336 17.5874 4.0133 13.7364L4.01594 13.7257L4.01918 13.7152C4.14508 13.3067 4.53317 13.1741 4.83768 13.252C4.98639 13.2901 5.13284 13.3801 5.23149 13.5252C5.3348 13.677 5.36882 13.8651 5.32476 14.0557L5.3233 14.062L5.32325 14.062C4.20452 18.5568 5.46019 23.519 8.59524 26.9244C8.7382 27.0711 8.79524 27.2577 8.77627 27.4383C8.75831 27.6091 8.67561 27.7546 8.57551 27.858C8.47614 27.9606 8.33238 28.0496 8.15971 28.0699C7.97229 28.0919 7.78005 28.0276 7.6384 27.8709ZM24.2557 37.1363C24.2442 37.119 24.2339 37.0998 24.2251 37.0788C22.9905 32.905 22.7099 28.4791 23.4114 24.1653C23.4155 24.1385 23.4224 24.1145 23.4315 24.093C23.4224 24.1144 23.4155 24.1385 23.4114 24.1653C22.7099 28.4791 22.9905 32.905 24.2251 37.0788C24.2338 37.0998 24.2441 37.119 24.2557 37.1363ZM23.3465 23.6434C23.1736 23.7373 23.0618 23.9046 23.0305 24.1046C22.32 28.4752 22.6043 32.9592 23.8552 37.1882L23.8611 37.2082L23.8691 37.2274C24.0282 37.6086 24.4171 37.7097 24.7049 37.6287C24.8509 37.5875 24.999 37.4945 25.0941 37.3401C25.1937 37.1784 25.2122 36.9857 25.1556 36.7997C23.9658 32.7654 23.6893 28.5104 24.3534 24.3664L24.3538 24.3641C24.4197 23.9361 24.1091 23.6582 23.8274 23.5879C23.6833 23.552 23.5072 23.5561 23.3465 23.6434ZM27.5852 43.7699C27.0244 42.37 26.4629 40.9686 25.9013 39.595C25.8474 39.4612 25.751 39.3313 25.6164 39.2444C25.482 39.1576 25.2944 39.1075 25.0971 39.1736C24.9218 39.2193 24.7865 39.3377 24.7064 39.4686C24.6198 39.61 24.5693 39.8152 24.6527 40.0235L24.6529 40.0239C25.2138 41.4238 25.7753 42.8252 26.3368 44.1987C26.3907 44.3325 26.4872 44.4624 26.6218 44.5494C26.7561 44.6362 26.9437 44.6862 27.141 44.6202C27.3163 44.5745 27.4517 44.4561 27.5318 44.3252C27.6184 44.1837 27.6688 43.9785 27.5854 43.7703L27.5852 43.7699ZM27.2274 43.9137C26.6662 42.5131 26.105 41.1125 25.5439 39.74C25.5344 39.7163 25.5225 39.6935 25.5087 39.6721C25.5225 39.6935 25.5344 39.7163 25.5439 39.74C26.105 41.1125 26.6662 42.5131 27.2273 43.9137C27.2835 44.0538 27.1712 44.2219 27.0309 44.2499C27.0269 44.2515 27.0228 44.253 27.0188 44.2543C27.0229 44.253 27.0269 44.2515 27.031 44.2499C27.1713 44.2219 27.2835 44.0538 27.2274 43.9137ZM16.6493 43.6056C16.709 43.6533 16.737 43.7099 16.7412 43.7673C16.737 43.7099 16.709 43.6533 16.6493 43.6056L16.6493 43.6056ZM7.44619 43.3535C7.4713 43.3376 7.49648 43.3219 7.52173 43.3064C7.49647 43.3219 7.47128 43.3376 7.44616 43.3535C7.42079 43.3696 7.3956 43.381 7.37092 43.3882C7.39561 43.381 7.4208 43.3696 7.44619 43.3535ZM6.95976 42.5231C10.0787 40.5549 14.1341 40.9075 16.8976 43.3104C17.0561 43.4407 17.139 43.6258 17.1263 43.8224C17.1144 44.0041 17.0243 44.1544 16.9218 44.2567C16.7271 44.4512 16.3304 44.6008 15.9877 44.3272L15.9802 44.3212L15.973 44.3148C13.6631 42.2738 10.26 42.0325 7.65216 43.6796C7.48063 43.7883 7.28279 43.8127 7.10106 43.749C6.93157 43.6895 6.80958 43.5658 6.73737 43.436C6.59619 43.1823 6.5868 42.76 6.95877 42.5237L6.95976 42.5231ZM38.336 36.9793C38.3758 36.9447 38.407 36.8944 38.4226 36.8267C38.9277 34.6978 40.022 32.849 41.6213 31.3644C41.7224 31.2735 41.736 31.1645 41.699 31.074C41.736 31.1645 41.7223 31.2735 41.6212 31.3644C40.0219 32.849 38.9276 34.6978 38.4226 36.8267C38.4069 36.8944 38.3758 36.9447 38.336 36.9793ZM40.9707 30.6853L40.9706 30.6852L40.9632 30.6922C39.2561 32.3098 38.0659 34.3075 37.5145 36.5963L37.5137 36.5998C37.4697 36.7904 37.5038 36.9776 37.6054 37.1287C37.7025 37.2729 37.847 37.364 37.9949 37.4029C38.1426 37.4417 38.3164 37.4341 38.474 37.3497C38.6397 37.261 38.7538 37.1052 38.7981 36.9149C39.2851 34.8631 40.3384 33.0822 41.8818 31.6488C42.0262 31.5178 42.1082 31.3418 42.1033 31.1514C42.0986 30.9699 42.0162 30.8144 41.9078 30.7063C41.6885 30.4873 41.2873 30.4008 40.9707 30.6853ZM46.4168 27.3695L46.409 27.3707L46.4014 27.3722C45.0348 27.6392 43.8195 28.2916 42.8161 29.2345L42.816 29.2343L42.8078 29.2426C42.667 29.3831 42.6009 29.5646 42.615 29.7483C42.6284 29.9212 42.7101 30.0692 42.8148 30.1737C42.9194 30.2782 43.0674 30.3596 43.2401 30.3728C43.4211 30.3867 43.6003 30.3228 43.7403 30.1859C44.5861 29.3954 45.5838 28.8729 46.6823 28.663C46.8723 28.6316 47.0378 28.528 47.1339 28.3594C47.2254 28.199 47.2303 28.0218 47.192 27.8766C47.1158 27.5873 46.8276 27.3064 46.4168 27.3695Z" fill="#F4831F"/>
<path d="M50.9646 27.1906C50.4876 26.9665 50.0106 26.8264 49.5055 26.7144C49.8422 26.9105 50.1789 27.1346 50.4876 27.3867C51.7221 28.5352 52.1711 30.58 51.2171 31.9526C50.5718 32.905 49.4494 33.3812 48.3271 33.6334C47.2048 33.9135 46.0544 33.9975 44.9882 34.3897C42.6593 35.23 40.9758 37.387 40.078 39.6839C39.1801 42.0089 38.9556 44.502 38.6751 46.9671C38.6189 47.5553 38.5348 48.1716 38.2261 48.6758C37.9175 49.18 37.3002 49.5442 36.711 49.3481C36.2901 49.208 36.0095 48.8159 35.757 48.4237C35.6448 48.2556 35.5606 48.0595 35.4484 47.8915C35.5887 49.096 35.8412 50.2725 36.4023 51.2249C36.5707 51.533 36.7952 51.7851 37.0477 51.9812C37.4686 52.3174 38.0297 52.4574 38.6189 52.3174C39.9938 51.9812 40.6111 50.3285 40.8917 49.124C41.3125 47.1912 41.5089 45.2023 42.4349 43.4376C43.445 41.4767 44.9601 39.5999 46.7839 38.3674C48.9444 36.9108 52.0869 36.2665 53.5459 33.9135C55.1172 31.4764 53.3776 28.3111 50.9646 27.1906Z" fill="#F4831F"/>
</svg>
