<svg width="184" height="54" viewBox="0 0 184 54" fill="none" xmlns="http://www.w3.org/2000/svg">
<path d="M65.6137 25.0577H66.5526C66.9302 25.0577 67.2432 25.008 67.4916 24.9086C67.74 24.7993 67.9536 24.6304 68.1324 24.4019L74.0791 16.8754C74.3275 16.5575 74.5858 16.3389 74.8541 16.2196C75.1323 16.0905 75.4801 16.0259 75.8974 16.0259H79.3551L72.0969 24.9831C71.6696 25.5296 71.2275 25.9171 70.7704 26.1456C71.0983 26.2649 71.3914 26.4338 71.6498 26.6524C71.918 26.861 72.1714 27.1392 72.4099 27.487L79.8916 37.5769H76.3594C75.8825 37.5769 75.5248 37.5124 75.2863 37.3832C75.0578 37.2441 74.864 37.0454 74.7051 36.787L68.6094 28.8283C68.4206 28.5601 68.202 28.3713 67.9536 28.262C67.7052 28.1527 67.3475 28.0981 66.8805 28.0981H65.6137V37.5769H61.6045V16.0259H65.6137V25.0577ZM84.5568 22.2855V37.5769H80.8606V22.2855H84.5568ZM85.0635 17.8293C85.0635 18.1472 84.9989 18.4453 84.8698 18.7235C84.7406 19.0017 84.5667 19.2451 84.3481 19.4538C84.1395 19.6624 83.8911 19.8314 83.6029 19.9605C83.3148 20.0798 83.0068 20.1394 82.6789 20.1394C82.3609 20.1394 82.0579 20.0798 81.7698 19.9605C81.4915 19.8314 81.2481 19.6624 81.0395 19.4538C80.8308 19.2451 80.6619 19.0017 80.5327 18.7235C80.4135 18.4453 80.3539 18.1472 80.3539 17.8293C80.3539 17.5014 80.4135 17.1934 80.5327 16.9052C80.6619 16.6171 80.8308 16.3687 81.0395 16.16C81.2481 15.9514 81.4915 15.7874 81.7698 15.6682C82.0579 15.539 82.3609 15.4745 82.6789 15.4745C83.0068 15.4745 83.3148 15.539 83.6029 15.6682C83.8911 15.7874 84.1395 15.9514 84.3481 16.16C84.5667 16.3687 84.7406 16.6171 84.8698 16.9052C84.9989 17.1934 85.0635 17.5014 85.0635 17.8293ZM97.1913 26.1904C96.774 25.6836 96.317 25.3259 95.8202 25.1173C95.3333 24.9086 94.8067 24.8043 94.2404 24.8043C93.684 24.8043 93.1822 24.9086 92.7351 25.1173C92.288 25.3259 91.9054 25.6439 91.5875 26.0711C91.2695 26.4884 91.0261 27.025 90.8572 27.6807C90.6883 28.3266 90.6038 29.0916 90.6038 29.9759C90.6038 30.8702 90.6734 31.6303 90.8125 32.2562C90.9615 32.8723 91.1702 33.379 91.4384 33.7764C91.7067 34.1639 92.0346 34.4471 92.4221 34.626C92.8096 34.7949 93.2418 34.8793 93.7187 34.8793C94.4838 34.8793 95.1346 34.7204 95.6711 34.4024C96.2077 34.0845 96.7144 33.6324 97.1913 33.0461V26.1904ZM100.873 15.4297V37.5769H98.6221C98.1353 37.5769 97.8272 37.3534 97.6981 36.9063L97.3851 35.4308C96.7691 36.1362 96.0587 36.7075 95.2538 37.1447C94.459 37.5819 93.53 37.8005 92.4668 37.8005C91.6322 37.8005 90.8671 37.6266 90.1716 37.2789C89.4761 36.9311 88.875 36.4293 88.3682 35.7736C87.8714 35.1079 87.4839 34.2881 87.2057 33.3144C86.9375 32.3407 86.8033 31.2279 86.8033 29.9759C86.8033 28.8432 86.9573 27.79 87.2653 26.8163C87.5734 25.8426 88.0155 24.998 88.5918 24.2827C89.1681 23.5673 89.8586 23.0109 90.6634 22.6134C91.4682 22.206 92.3724 22.0024 93.3759 22.0024C94.2304 22.0024 94.9607 22.1365 95.5668 22.4048C96.1729 22.673 96.7144 23.0357 97.1913 23.4927V15.4297H100.873ZM113.119 25.2663C113.02 25.4253 112.915 25.5396 112.806 25.6091C112.697 25.6687 112.558 25.6985 112.389 25.6985C112.21 25.6985 112.016 25.6488 111.807 25.5495C111.609 25.4501 111.375 25.3408 111.107 25.2216C110.839 25.0924 110.531 24.9782 110.183 24.8788C109.845 24.7795 109.443 24.7298 108.976 24.7298C108.25 24.7298 107.679 24.8838 107.262 25.1918C106.854 25.4998 106.651 25.9022 106.651 26.399C106.651 26.7269 106.755 27.0051 106.964 27.2336C107.182 27.4522 107.465 27.646 107.813 27.8149C108.171 27.9838 108.573 28.1378 109.02 28.2769C109.468 28.4061 109.92 28.5501 110.377 28.7091C110.844 28.8681 111.301 29.0519 111.748 29.2606C112.195 29.4593 112.592 29.7176 112.94 30.0356C113.298 30.3436 113.581 30.7162 113.79 31.1534C114.008 31.5905 114.118 32.1171 114.118 32.7332C114.118 33.4684 113.983 34.149 113.715 34.775C113.457 35.391 113.069 35.9276 112.553 36.3846C112.036 36.8317 111.395 37.1845 110.63 37.4428C109.875 37.6912 109.001 37.8154 108.007 37.8154C107.48 37.8154 106.964 37.7657 106.457 37.6664C105.96 37.5769 105.478 37.4478 105.011 37.2789C104.554 37.1099 104.127 36.9112 103.73 36.6827C103.342 36.4542 102.999 36.2058 102.701 35.9375L103.551 34.5365C103.66 34.3676 103.789 34.2385 103.938 34.149C104.087 34.0596 104.276 34.0149 104.505 34.0149C104.733 34.0149 104.947 34.0795 105.145 34.2087C105.354 34.3378 105.593 34.4769 105.861 34.626C106.129 34.775 106.442 34.9141 106.8 35.0433C107.167 35.1724 107.629 35.237 108.186 35.237C108.623 35.237 108.996 35.1873 109.304 35.088C109.622 34.9787 109.88 34.8396 110.079 34.6707C110.287 34.5018 110.436 34.308 110.526 34.0894C110.625 33.8609 110.675 33.6274 110.675 33.3889C110.675 33.0312 110.565 32.7381 110.347 32.5096C110.138 32.2811 109.855 32.0824 109.497 31.9135C109.15 31.7445 108.747 31.5955 108.29 31.4663C107.843 31.3272 107.381 31.1782 106.904 31.0192C106.437 30.8602 105.975 30.6764 105.518 30.4678C105.071 30.2492 104.668 29.9759 104.311 29.6481C103.963 29.3202 103.68 28.9178 103.461 28.4408C103.253 27.9639 103.148 27.3876 103.148 26.712C103.148 26.086 103.272 25.4899 103.521 24.9235C103.769 24.3572 104.132 23.8653 104.609 23.448C105.096 23.0208 105.697 22.683 106.412 22.4346C107.138 22.1762 107.972 22.0471 108.916 22.0471C109.969 22.0471 110.928 22.2209 111.793 22.5687C112.657 22.9165 113.377 23.3735 113.954 23.9399L113.119 25.2663ZM127.126 25.5197C127.017 25.6588 126.908 25.7681 126.798 25.8476C126.699 25.9271 126.55 25.9668 126.351 25.9668C126.162 25.9668 125.978 25.9121 125.8 25.8029C125.621 25.6836 125.407 25.5545 125.159 25.4154C124.91 25.2663 124.612 25.1371 124.265 25.0279C123.927 24.9086 123.504 24.849 122.998 24.849C122.352 24.849 121.786 24.9682 121.299 25.2067C120.812 25.4352 120.404 25.7681 120.077 26.2053C119.759 26.6424 119.52 27.174 119.361 27.8C119.202 28.416 119.123 29.1165 119.123 29.9014C119.123 30.7162 119.207 31.4415 119.376 32.0774C119.555 32.7133 119.808 33.2498 120.136 33.687C120.464 34.1143 120.861 34.4421 121.328 34.6707C121.795 34.8893 122.322 34.9986 122.908 34.9986C123.495 34.9986 123.966 34.929 124.324 34.7899C124.692 34.6409 125 34.4819 125.248 34.313C125.497 34.1341 125.71 33.9752 125.889 33.8361C126.078 33.687 126.287 33.6125 126.515 33.6125C126.813 33.6125 127.037 33.7268 127.186 33.9553L128.244 35.2966C127.837 35.7736 127.394 36.176 126.917 36.5039C126.441 36.8218 125.944 37.0801 125.427 37.2789C124.92 37.4676 124.394 37.6018 123.847 37.6813C123.311 37.7607 122.774 37.8005 122.238 37.8005C121.294 37.8005 120.404 37.6266 119.57 37.2789C118.735 36.9212 118.005 36.4045 117.379 35.7289C116.753 35.0532 116.256 34.2285 115.889 33.2548C115.531 32.2711 115.352 31.1534 115.352 29.9014C115.352 28.7787 115.511 27.7404 115.829 26.7865C116.157 25.8227 116.634 24.9931 117.26 24.2976C117.886 23.5921 118.661 23.0407 119.585 22.6432C120.509 22.2458 121.572 22.0471 122.774 22.0471C123.917 22.0471 124.915 22.2309 125.77 22.5985C126.634 22.9661 127.409 23.4927 128.095 24.1783L127.126 25.5197ZM137.913 31.049C136.85 31.0987 135.956 31.1931 135.23 31.3322C134.505 31.4614 133.924 31.6303 133.487 31.8389C133.049 32.0476 132.736 32.291 132.548 32.5692C132.359 32.8474 132.264 33.1505 132.264 33.4784C132.264 34.1242 132.453 34.5862 132.831 34.8644C133.218 35.1426 133.72 35.2817 134.336 35.2817C135.091 35.2817 135.742 35.1476 136.289 34.8793C136.845 34.6011 137.386 34.1838 137.913 33.6274V31.049ZM129.477 24.4168C131.236 22.8072 133.352 22.0024 135.827 22.0024C136.721 22.0024 137.521 22.1514 138.226 22.4495C138.931 22.7376 139.528 23.145 140.015 23.6716C140.501 24.1883 140.869 24.8093 141.117 25.5346C141.376 26.2599 141.505 27.0548 141.505 27.9192V37.5769H139.836C139.488 37.5769 139.22 37.5273 139.031 37.4279C138.842 37.3186 138.693 37.105 138.584 36.787L138.256 35.6841C137.868 36.0319 137.491 36.3399 137.123 36.6082C136.756 36.8665 136.373 37.0851 135.976 37.264C135.578 37.4428 135.151 37.5769 134.694 37.6664C134.247 37.7657 133.75 37.8154 133.203 37.8154C132.558 37.8154 131.961 37.7309 131.415 37.562C130.868 37.3832 130.397 37.1199 129.999 36.7721C129.602 36.4244 129.294 35.9922 129.075 35.4755C128.856 34.9588 128.747 34.3577 128.747 33.6721C128.747 33.2846 128.812 32.9021 128.941 32.5245C129.07 32.137 129.279 31.7694 129.567 31.4216C129.865 31.0739 130.247 30.746 130.714 30.438C131.181 30.13 131.753 29.8617 132.428 29.6332C133.114 29.4046 133.909 29.2208 134.813 29.0817C135.717 28.9327 136.751 28.8432 137.913 28.8134V27.9192C137.913 26.8958 137.694 26.1407 137.257 25.6538C136.82 25.157 136.189 24.9086 135.364 24.9086C134.768 24.9086 134.272 24.9782 133.874 25.1173C133.487 25.2564 133.144 25.4154 132.846 25.5942C132.548 25.7631 132.274 25.9171 132.026 26.0562C131.788 26.1953 131.519 26.2649 131.221 26.2649C130.963 26.2649 130.744 26.2003 130.565 26.0711C130.387 25.932 130.243 25.773 130.133 25.5942L129.477 24.4168ZM144.255 37.5769V22.2855H146.506C146.983 22.2855 147.296 22.5091 147.445 22.9562L147.683 24.0889C147.952 23.7908 148.23 23.5176 148.518 23.2692C148.816 23.0208 149.129 22.8072 149.457 22.6283C149.795 22.4495 150.152 22.3104 150.53 22.211C150.917 22.1017 151.34 22.0471 151.797 22.0471C152.761 22.0471 153.55 22.3104 154.166 22.837C154.792 23.3536 155.259 24.0442 155.567 24.9086C155.806 24.4019 156.104 23.9697 156.462 23.612C156.819 23.2444 157.212 22.9463 157.639 22.7177C158.066 22.4892 158.518 22.3203 158.995 22.211C159.482 22.1017 159.969 22.0471 160.456 22.0471C161.3 22.0471 162.051 22.1762 162.706 22.4346C163.362 22.6929 163.914 23.0705 164.361 23.5673C164.808 24.0641 165.146 24.6702 165.374 25.3855C165.613 26.1009 165.732 26.9206 165.732 27.8447V37.5769H162.051V27.8447C162.051 26.871 161.837 26.1407 161.41 25.6538C160.983 25.157 160.357 24.9086 159.532 24.9086C159.154 24.9086 158.802 24.9732 158.474 25.1024C158.156 25.2315 157.873 25.4203 157.624 25.6687C157.386 25.9072 157.197 26.2102 157.058 26.5779C156.919 26.9455 156.849 27.3678 156.849 27.8447V37.5769H153.153V27.8447C153.153 26.8213 152.944 26.0761 152.527 25.6091C152.12 25.1421 151.519 24.9086 150.724 24.9086C150.187 24.9086 149.685 25.0428 149.218 25.311C148.761 25.5694 148.334 25.9271 147.937 26.3841V37.5769H144.255ZM172.196 33.6125C172.613 34.1192 173.065 34.4769 173.552 34.6856C174.049 34.8942 174.585 34.9986 175.162 34.9986C175.718 34.9986 176.22 34.8942 176.667 34.6856C177.114 34.4769 177.492 34.159 177.8 33.7317C178.118 33.3045 178.361 32.7679 178.53 32.1221C178.699 31.4663 178.783 30.6963 178.783 29.812C178.783 28.9178 178.709 28.1626 178.56 27.5466C178.421 26.9206 178.217 26.4139 177.949 26.0264C177.68 25.6389 177.353 25.3557 176.965 25.1769C176.587 24.998 176.155 24.9086 175.668 24.9086C174.903 24.9086 174.253 25.0726 173.716 25.4004C173.179 25.7184 172.673 26.1705 172.196 26.7567V33.6125ZM172.002 24.3721C172.628 23.6666 173.338 23.0953 174.133 22.6581C174.928 22.2209 175.862 22.0024 176.935 22.0024C177.77 22.0024 178.53 22.1762 179.216 22.524C179.911 22.8718 180.507 23.3785 181.004 24.0442C181.511 24.7 181.898 25.5147 182.166 26.4884C182.445 27.4522 182.584 28.5601 182.584 29.812C182.584 30.9546 182.43 32.0128 182.122 32.9865C181.814 33.9603 181.372 34.8048 180.795 35.5202C180.229 36.2356 179.538 36.797 178.724 37.2043C177.919 37.6018 177.015 37.8005 176.011 37.8005C175.157 37.8005 174.426 37.6713 173.82 37.413C173.214 37.1447 172.673 36.7771 172.196 36.3101V42.5697H168.515V22.2855H170.765C171.242 22.2855 171.555 22.5091 171.704 22.9562L172.002 24.3721Z" fill="white"/>
<path d="M47.7131 20.6357C35.8164 21.8403 23.9478 20.6357 17.6066 6.7698C16.7368 4.86499 16.3159 2.76409 15.5864 0.803245C15.4742 0.495113 15.3339 0.158969 15.0252 0.0469211C14.6324 -0.121151 14.1554 0.186981 13.9871 0.579149C13.3698 2.03577 13.931 4.36077 14.1835 5.84541C14.5202 7.75022 15.5583 13.6327 21.4786 20.2716C20.1038 23.9132 20.3282 28.4231 20.8052 32.2327C21.3103 36.3225 22.4607 40.3562 24.2564 44.0818C26.0521 47.8354 28.5774 51.3929 32.1408 53.5219C32.5336 53.7459 33.2911 54.0261 33.7681 53.9981C34.2171 53.97 34.4415 53.2697 34.161 52.9056C32.3652 50.6646 31.5515 47.8354 30.7659 45.0622C30.2889 43.4095 29.84 41.7288 29.5313 40.0481C28.7177 35.4821 29.1666 30.7201 30.5134 26.2662C30.5134 26.2662 30.5134 26.2662 30.5134 26.2382C36.0689 27.1065 42.4101 25.2857 47.2642 22.4005C47.685 22.1484 48.1059 21.8683 48.2743 21.4201C48.4426 20.9439 48.1901 20.5797 47.7131 20.6357Z" fill="white"/>
<path d="M47.713 20.6357C35.8163 21.8402 23.9477 20.6357 17.6065 6.76977C17.0173 5.45321 16.6245 4.05261 16.2036 2.65201C16.5123 8.0023 18.9253 13.2405 22.8534 16.9101C27.2866 21.0559 33.5997 23.1288 39.6323 22.4285C37.079 24.7815 31.0464 24.7815 26.8377 23.1008C26.6132 23.0167 22.2361 32.905 31.1587 50.9447C31.804 52.2613 31.327 52.8215 30.7097 52.4294C31.0745 52.8495 31.6918 53.1857 32.1688 53.4658C32.5616 53.6899 33.3191 53.97 33.7961 53.942C34.2451 53.914 34.4695 53.2137 34.189 52.8495C32.3932 50.6086 31.5795 47.7794 30.7939 45.0062C30.3169 43.3535 29.868 41.6727 29.5593 39.992C28.7457 35.4261 29.1946 30.664 30.5414 26.2101C30.5414 26.2101 30.5414 26.2101 30.5414 26.1821C36.0969 27.0505 42.4381 25.2297 47.2922 22.3445C47.713 22.0923 48.1339 21.8122 48.3022 21.364C48.4425 20.9439 48.19 20.5797 47.713 20.6357Z" fill="white"/>
<path d="M27.2302 13.1845C26.2201 11.868 25.8554 10.0472 26.641 8.28243C27.9317 5.3972 31.6634 3.49238 34.7218 4.61286C35.9283 5.06105 36.8261 6.01346 37.3312 7.16195C39.0989 11.2517 35.1146 15.5095 30.962 15.1454C29.4188 15.0333 28.1 14.277 27.2302 13.1845Z" fill="white"/>
<path d="M36.3771 5.70538C36.5455 6.37767 36.5735 7.04996 36.4332 7.72225C35.9843 9.96321 34.0763 11.728 31.8878 12.4003C30.2043 12.9045 28.2402 12.7924 26.8373 11.728C26.6409 11.5879 26.4725 11.4198 26.3042 11.2238C26.4445 11.9521 26.7812 12.5963 27.2301 13.1846C28.0719 14.2771 29.4187 15.0334 30.9338 15.1734C35.0864 15.5096 39.0707 11.2798 37.303 7.19002C37.0786 6.62978 36.7699 6.12556 36.3771 5.70538Z" fill="white"/>
<path d="M0.0137796 35.6502C-0.0423369 35.1179 0.0698961 34.5857 0.406595 34.0535C1.22028 32.821 2.98795 32.5689 4.22252 33.2692C5.8499 34.1655 5.84989 36.5185 4.25057 37.471C3.60524 37.8631 2.8196 37.9191 2.09009 37.8071C0.939702 37.583 0.126013 36.6866 0.0137796 35.6502Z" fill="white"/>
<path d="M43.5323 16.3779C43.2517 16.8541 42.7747 17.2183 42.1855 17.3863C41.3998 17.6104 40.4739 17.4984 39.8286 16.9381C39.0991 16.3219 38.9307 15.1174 39.2674 14.249C39.6883 13.1845 40.9509 12.4562 42.0732 12.8764C43.0272 13.2406 43.7848 14.221 43.8128 15.2574C43.8409 15.6776 43.7287 16.0418 43.5323 16.3779Z" fill="white"/>
<path d="M14.4637 36.2664C11.4615 34.6698 7.98225 31.7565 7.39302 31.1122C4.53108 27.9469 2.28642 24.0812 1.55691 19.8234C0.855451 15.9017 1.58497 9.54297 6.60739 8.92671C9.80603 8.53454 12.1629 11.5879 12.8363 14.3891C13.5378 17.3583 13.2572 20.4116 13.3975 23.4089C13.5658 26.4062 14.4356 29.1514 15.9788 31.7285C16.7925 33.0731 18.3357 34.1375 18.953 35.5661C19.0372 35.7342 19.0933 35.9303 19.0372 36.1264C18.7286 37.9191 16.7084 37.471 14.4637 36.2664Z" fill="white"/>
<path d="M16.3716 37.1068C17.7745 37.527 18.8127 37.3869 19.0372 36.1264C19.0652 35.9303 19.0091 35.7342 18.953 35.5661C18.3638 34.1375 16.7925 33.1011 15.9788 31.7285C14.4356 29.1514 13.5658 26.4062 13.3975 23.4089C13.2291 20.4116 13.5377 17.3583 12.8363 14.3891C12.1629 11.5879 9.806 8.53454 6.60736 8.92671C5.45697 9.06677 4.5591 9.51496 3.82959 10.1312C5.03609 9.99117 6.29872 10.2433 7.28075 10.9436C8.76784 12.008 9.4693 13.8568 9.806 15.6496C10.4233 18.7869 10.1988 22.0363 10.6477 25.2297C11.0967 28.3951 12.3593 31.7285 15.0529 33.4372C15.8666 33.9414 16.8767 34.4176 17.1011 35.342C17.2695 36.0423 16.9328 36.6586 16.3716 37.1068Z" fill="white"/>
<path d="M24.3124 48.3396C21.3663 44.1098 16.0072 40.9164 11.125 40.2722C7.73 39.824 2.56728 42.149 4.75583 46.3228C5.65369 48.0035 7.44942 48.4797 9.24515 48.4237C11.5179 48.3396 13.9589 48.2556 16.2878 48.6197C18.7569 49.0119 20.4965 50.1884 22.7131 51.1969C23.3023 51.477 24.8736 52.2613 25.547 51.8691C26.6132 51.2529 24.7614 48.9839 24.3124 48.3396Z" fill="white"/>
<path d="M23.8073 49.3761C23.0778 49.4881 22.5447 48.7878 22.0677 48.2556C20.7209 46.7149 18.7007 45.9026 16.6805 45.7065C14.6603 45.4824 12.6121 45.8186 10.6199 46.2387C9.41342 46.4909 8.20692 46.799 7.00041 46.743C6.15866 46.7149 5.28886 46.4628 4.5874 45.9866C4.64352 46.1267 4.69964 46.2668 4.78381 46.4068C5.68167 48.0875 7.4774 48.5637 9.27313 48.5077C11.5458 48.4237 13.9869 48.3396 16.3158 48.7038C18.7849 49.096 20.5245 50.2725 22.7411 51.2809C23.3303 51.561 24.9016 52.3454 25.575 51.9532C26.5009 51.393 25.2663 49.6562 24.621 48.7598C24.4246 49.0399 24.1721 49.3201 23.8073 49.3761Z" fill="white"/>
<path d="M36.2653 52.0092C36.0127 51.8131 35.7883 51.561 35.6199 51.2529C34.5537 49.4041 34.5537 46.799 34.5537 44.7261C34.5537 42.5972 34.7782 40.4402 35.2832 38.3674C36.2372 34.3897 38.2293 30.4119 41.7927 28.171C44.2057 26.6303 47.4605 25.958 50.1541 27.2186C52.5671 28.3391 54.3067 31.5044 52.7916 33.9695C51.3325 36.3225 48.19 36.9387 46.0295 38.4234C44.2057 39.6559 42.6906 41.5327 41.6805 43.4936C40.7546 45.2863 40.5582 47.2472 40.1373 49.18C39.8567 50.3845 39.2394 52.0372 37.8646 52.3734C37.2192 52.4854 36.6861 52.3173 36.2653 52.0092Z" fill="white"/>
<path fill-rule="evenodd" clip-rule="evenodd" d="M3.94739 13.654C3.80134 13.5744 3.58753 13.6133 3.52111 13.8288C2.59519 17.5824 3.18441 21.6161 5.12043 24.9776C5.65354 25.93 6.32694 26.8264 7.05645 27.6107C7.07355 27.6299 7.09178 27.6452 7.11077 27.657C7.09177 27.6452 7.07353 27.6299 7.05643 27.6107C6.32691 26.8263 5.65351 25.93 5.12041 24.9776C3.18439 21.6161 2.59516 17.5824 3.52109 13.8288C3.58751 13.6133 3.80134 13.5743 3.94739 13.654ZM6.7717 27.8709C6.02514 27.0679 5.33406 26.1485 4.78499 25.168C2.80103 21.7221 2.19666 17.5874 3.1466 13.7364L3.14924 13.7257L3.15248 13.7152C3.27838 13.3067 3.66647 13.1741 3.97098 13.252C4.11969 13.2901 4.26614 13.3801 4.36479 13.5252C4.4681 13.677 4.50212 13.8651 4.45806 14.0557L4.4566 14.062L4.45655 14.062C3.33782 18.5568 4.59349 23.519 7.72854 26.9244C7.8715 27.0711 7.92854 27.2577 7.90957 27.4383C7.89161 27.6091 7.80891 27.7546 7.70881 27.858C7.60944 27.9606 7.46568 28.0496 7.29301 28.0699C7.10559 28.0919 6.91335 28.0276 6.7717 27.8709ZM23.389 37.1363C23.3775 37.119 23.3672 37.0998 23.3584 37.0788C22.1238 32.905 21.8433 28.4791 22.5447 24.1653C22.5488 24.1385 22.5557 24.1145 22.5648 24.093C22.5557 24.1144 22.5488 24.1385 22.5447 24.1653C21.8432 28.4791 22.1238 32.905 23.3584 37.0788C23.3671 37.0998 23.3774 37.119 23.389 37.1363ZM22.4798 23.6434C22.3069 23.7373 22.1951 23.9046 22.1638 24.1046C21.4533 28.4752 21.7376 32.9592 22.9885 37.1882L22.9944 37.2082L23.0024 37.2274C23.1615 37.6086 23.5504 37.7097 23.8382 37.6287C23.9842 37.5875 24.1323 37.4945 24.2274 37.3401C24.327 37.1784 24.3455 36.9857 24.2889 36.7997C23.0991 32.7654 22.8226 28.5104 23.4867 24.3664L23.4871 24.3641C23.553 23.9361 23.2424 23.6582 22.9607 23.5879C22.8166 23.552 22.6405 23.5561 22.4798 23.6434ZM26.7185 43.7699C26.1577 42.37 25.5962 40.9686 25.0346 39.595C24.9807 39.4612 24.8843 39.3313 24.7497 39.2444C24.6153 39.1576 24.4277 39.1075 24.2304 39.1736C24.0551 39.2193 23.9198 39.3377 23.8397 39.4686C23.7531 39.61 23.7026 39.8152 23.786 40.0235L23.7862 40.0239C24.3471 41.4238 24.9086 42.8252 25.4701 44.1987C25.524 44.3325 25.6205 44.4624 25.7551 44.5494C25.8894 44.6362 26.077 44.6862 26.2743 44.6202C26.4496 44.5745 26.585 44.4561 26.6651 44.3252C26.7517 44.1837 26.8021 43.9785 26.7187 43.7703L26.7185 43.7699ZM26.3607 43.9137C25.7995 42.5131 25.2383 41.1125 24.6772 39.74C24.6677 39.7163 24.6558 39.6935 24.642 39.6721C24.6558 39.6935 24.6677 39.7163 24.6772 39.74C25.2383 41.1125 25.7995 42.5131 26.3606 43.9137C26.4168 44.0538 26.3045 44.2219 26.1642 44.2499C26.1602 44.2515 26.1561 44.253 26.1521 44.2543C26.1562 44.253 26.1602 44.2515 26.1643 44.2499C26.3046 44.2219 26.4168 44.0538 26.3607 43.9137ZM15.7826 43.6056C15.8423 43.6533 15.8703 43.7099 15.8745 43.7673C15.8703 43.7099 15.8423 43.6533 15.7826 43.6056L15.7826 43.6056ZM6.57949 43.3535C6.6046 43.3376 6.62978 43.3219 6.65503 43.3064C6.62977 43.3219 6.60458 43.3376 6.57946 43.3535C6.55409 43.3696 6.5289 43.381 6.50422 43.3882C6.52891 43.381 6.55411 43.3696 6.57949 43.3535ZM6.09306 42.5231C9.21201 40.5549 13.2674 40.9075 16.0309 43.3104C16.1894 43.4407 16.2723 43.6258 16.2596 43.8224C16.2477 44.0041 16.1576 44.1544 16.0551 44.2567C15.8604 44.4512 15.4637 44.6008 15.121 44.3272L15.1135 44.3212L15.1063 44.3148C12.7964 42.2738 9.39329 42.0325 6.78546 43.6796C6.61393 43.7883 6.41609 43.8127 6.23437 43.749C6.06487 43.6895 5.94288 43.5658 5.87067 43.436C5.7295 43.1823 5.7201 42.76 6.09207 42.5237L6.09306 42.5231ZM37.4693 36.9793C37.5091 36.9447 37.5403 36.8944 37.5559 36.8267C38.061 34.6978 39.1553 32.849 40.7546 31.3644C40.8557 31.2735 40.8693 31.1645 40.8323 31.074C40.8693 31.1645 40.8556 31.2735 40.7545 31.3644C39.1552 32.849 38.0609 34.6978 37.5559 36.8267C37.5402 36.8944 37.5091 36.9447 37.4693 36.9793ZM40.104 30.6853L40.1039 30.6852L40.0965 30.6922C38.3894 32.3098 37.1992 34.3075 36.6478 36.5963L36.647 36.5998C36.603 36.7904 36.6371 36.9776 36.7387 37.1287C36.8358 37.2729 36.9803 37.364 37.1282 37.4029C37.2759 37.4417 37.4497 37.4341 37.6073 37.3497C37.773 37.261 37.8871 37.1052 37.9314 36.9149C38.4184 34.8631 39.4717 33.0822 41.0151 31.6488C41.1595 31.5178 41.2415 31.3418 41.2366 31.1514C41.2319 30.9699 41.1495 30.8144 41.0411 30.7063C40.8218 30.4873 40.4206 30.4008 40.104 30.6853ZM45.5501 27.3695L45.5423 27.3707L45.5347 27.3722C44.1681 27.6392 42.9528 28.2916 41.9494 29.2345L41.9493 29.2343L41.9411 29.2426C41.8003 29.3831 41.7342 29.5646 41.7483 29.7483C41.7617 29.9212 41.8434 30.0692 41.9481 30.1737C42.0527 30.2782 42.2007 30.3596 42.3734 30.3728C42.5544 30.3867 42.7336 30.3228 42.8736 30.1859C43.7194 29.3954 44.7171 28.8729 45.8156 28.663C46.0056 28.6316 46.1711 28.528 46.2672 28.3594C46.3587 28.199 46.3636 28.0218 46.3253 27.8766C46.2491 27.5873 45.9609 27.3064 45.5501 27.3695Z" fill="white"/>
<path d="M50.0978 27.1906C49.6208 26.9665 49.1438 26.8264 48.6387 26.7144C48.9754 26.9105 49.3121 27.1346 49.6208 27.3867C50.8553 28.5352 51.3043 30.58 50.3503 31.9526C49.7049 32.905 48.5826 33.3812 47.4603 33.6334C46.3379 33.9135 45.1876 33.9975 44.1213 34.3897C41.7925 35.23 40.109 37.387 39.2112 39.6839C38.3133 42.0089 38.0888 44.502 37.8082 46.9671C37.7521 47.5553 37.6679 48.1716 37.3593 48.6758C37.0507 49.18 36.4334 49.5442 35.8442 49.3481C35.4233 49.208 35.1427 48.8159 34.8902 48.4237C34.778 48.2556 34.6938 48.0595 34.5815 47.8915C34.7218 49.096 34.9744 50.2725 35.5355 51.2249C35.7039 51.533 35.9283 51.7851 36.1809 51.9812C36.6017 52.3174 37.1629 52.4574 37.7521 52.3174C39.127 51.9812 39.7443 50.3285 40.0248 49.124C40.4457 47.1912 40.6421 45.2023 41.568 43.4376C42.5781 41.4767 44.0933 39.5999 45.9171 38.3674C48.0776 36.9108 51.2201 36.2665 52.6791 33.9135C54.2504 31.4764 52.5108 28.3111 50.0978 27.1906Z" fill="white"/>
</svg>
